<svg width="93" height="15" viewBox="0 0 93 15" fill="none" xmlns="http://www.w3.org/2000/svg">
<path fill-rule="evenodd" clip-rule="evenodd" d="M3.16519 8.98263C3.15791 9.32948 3.22211 9.6742 3.35395 9.99607C3.48578 10.3179 3.68253 10.6103 3.93237 10.8556C4.1822 11.1009 4.47997 11.2941 4.80777 11.4236C5.13557 11.553 5.48664 11.6161 5.83988 11.6089C6.2512 11.6135 6.65766 11.5213 7.02526 11.3401C7.39287 11.1588 7.71094 10.8938 7.95288 10.5672C7.98053 10.5283 8.01631 10.4957 8.05783 10.4716C8.09934 10.4474 8.14564 10.4323 8.1936 10.4271C8.23867 10.4191 8.28494 10.4205 8.32945 10.431C8.37397 10.4416 8.41575 10.4611 8.45216 10.4884L10.4047 11.9591C10.4751 12.0171 10.5199 12.0996 10.5299 12.1893C10.5398 12.279 10.5142 12.369 10.4582 12.4406C9.76685 13.3178 8.83125 13.9793 7.76475 14.3449C6.69826 14.7106 5.54666 14.7646 4.4495 14.5006C3.35234 14.2365 2.35674 13.6657 1.58333 12.8572C0.809925 12.0488 0.291922 11.0374 0.0920963 9.9457C-0.107729 8.854 0.0191999 7.72883 0.457504 6.70653C0.895809 5.68424 1.62667 4.80871 2.56152 4.18605C3.49637 3.5634 4.59508 3.22033 5.72449 3.19844C6.8539 3.17655 7.96554 3.47678 8.92469 4.06273C8.9695 4.09486 9.00584 4.13705 9.03066 4.18579C9.05547 4.23452 9.06805 4.28838 9.06734 4.34286C9.07585 4.39186 9.07391 4.44206 9.06163 4.49029C9.04935 4.53851 9.02701 4.5837 8.99601 4.623L7.49819 6.53143C7.44667 6.59825 7.37246 6.64472 7.28903 6.66239C7.2056 6.68006 7.11848 6.66776 7.04349 6.62773C6.63498 6.4256 6.18049 6.32973 5.72347 6.34927C5.26645 6.36882 4.82218 6.50313 4.43311 6.73937C4.04404 6.97562 3.72318 7.30589 3.5012 7.69864C3.27922 8.09138 3.16353 8.53346 3.16519 8.98263Z" fill="#EA5C15"/>
<path fill-rule="evenodd" clip-rule="evenodd" d="M53.0087 8.85885C53.0177 9.39785 53.1954 9.92107 53.5177 10.3575C53.84 10.7939 54.2912 11.1224 54.8102 11.2983C55.3292 11.4742 55.8907 11.489 56.4185 11.3408C56.9464 11.1925 57.415 10.8884 57.7607 10.4696C57.7884 10.4308 57.8241 10.3982 57.8657 10.3741C57.9072 10.3499 57.9535 10.3347 58.0014 10.3296C58.0465 10.3221 58.0927 10.3237 58.1371 10.3342C58.1815 10.3448 58.2233 10.364 58.26 10.3908L60.2125 11.8616C60.2829 11.9196 60.3277 12.0021 60.3377 12.0918C60.3477 12.1815 60.322 12.2715 60.266 12.343C59.5754 13.2239 58.6393 13.889 57.5713 14.2576C56.5033 14.6263 55.3492 14.6827 54.2492 14.4199C53.1492 14.1572 52.1505 13.5866 51.3742 12.7775C50.598 11.9683 50.0776 10.9553 49.8762 9.86144C49.6748 8.76756 49.8011 7.6398 50.2397 6.615C50.6783 5.5902 51.4103 4.71242 52.3471 4.08815C53.2838 3.46389 54.3849 3.11998 55.5168 3.09815C56.6486 3.07633 57.7626 3.37753 58.7236 3.9652C58.7661 3.99098 58.8024 4.02543 58.8301 4.06622C58.8578 4.10701 58.8762 4.15317 58.8841 4.20157C58.8963 4.24983 58.897 4.30021 58.8862 4.34879C58.8753 4.39737 58.8533 4.44285 58.8217 4.48171L57.3149 6.39014C57.2649 6.45629 57.1923 6.50247 57.1104 6.52016C57.0285 6.53786 56.9428 6.52588 56.8691 6.48644C56.4839 6.28914 56.0555 6.18698 55.621 6.18879C55.2691 6.18972 54.921 6.26022 54.5975 6.39606C54.2739 6.53191 53.9815 6.73033 53.7378 6.9795C53.494 7.22866 53.3038 7.52348 53.1785 7.84636C53.0533 8.16924 52.9955 8.51358 53.0087 8.85885Z" fill="#EA5C15"/>
<path fill-rule="evenodd" clip-rule="evenodd" d="M35.7748 8.91138C35.7748 5.72482 33.644 3.15106 30.577 3.15106C29.5072 3.10829 28.4611 3.46842 27.6527 4.1578V3.50123C27.6527 3.40836 27.6151 3.31929 27.5482 3.25362C27.4814 3.18795 27.3906 3.15106 27.2961 3.15106H24.8264C24.7319 3.15106 24.6411 3.18795 24.5743 3.25362C24.5074 3.31929 24.4698 3.40836 24.4698 3.50123V14.2953C24.4698 14.3881 24.5074 14.4772 24.5743 14.5429C24.6411 14.6085 24.7319 14.6454 24.8264 14.6454H27.2693C27.3161 14.6454 27.3625 14.6364 27.4058 14.6188C27.4491 14.6012 27.4884 14.5754 27.5215 14.5429C27.5546 14.5104 27.5809 14.4717 27.5988 14.4293C27.6167 14.3868 27.6259 14.3412 27.6259 14.2953V8.91138C27.6094 8.56218 27.6673 8.21345 27.7959 7.88748C27.9245 7.5615 28.1209 7.26546 28.3726 7.01828C28.6244 6.7711 28.9259 6.57821 29.2579 6.45197C29.5898 6.32572 29.945 6.26888 30.3006 6.28509C31.5934 6.28509 32.6365 7.16052 32.6365 8.91138V14.2953C32.6365 14.3881 32.6741 14.4772 32.741 14.5429C32.8079 14.6085 32.8986 14.6454 32.9931 14.6454H35.4093C35.5039 14.6454 35.5946 14.6085 35.6615 14.5429C35.7283 14.4772 35.7659 14.3881 35.7659 14.2953L35.7748 8.91138Z" fill="#EA5C15"/>
<path fill-rule="evenodd" clip-rule="evenodd" d="M16.9986 3.17737C15.4475 3.17737 13.9598 3.78241 12.863 4.8594C11.7662 5.93638 11.15 7.39709 11.15 8.92018C11.15 10.4433 11.7662 11.904 12.863 12.981C13.9598 14.0579 15.4475 14.663 16.9986 14.663C18.5525 14.6608 20.043 14.0579 21.1476 12.9848C22.2522 11.9116 22.882 10.4546 22.9008 8.92893C22.889 7.39951 22.262 5.93666 21.1564 4.85928C20.0508 3.78189 18.5563 3.17732 16.9986 3.17737ZM16.9986 11.5902C16.6492 11.5927 16.3028 11.5261 15.9801 11.3943C15.6574 11.2625 15.3651 11.0683 15.1204 10.8232C14.8758 10.5782 14.684 10.2872 14.5563 9.9678C14.4287 9.64836 14.3678 9.30696 14.3774 8.96395C14.3774 8.26741 14.6592 7.59941 15.1608 7.10688C15.6624 6.61436 16.3427 6.33766 17.0521 6.33766C17.7615 6.33766 18.4418 6.61436 18.9434 7.10688C19.445 7.59941 19.7268 8.26741 19.7268 8.96395C19.737 9.31605 19.6731 9.66644 19.5389 9.99312C19.4047 10.3198 19.2032 10.6157 18.947 10.8623C18.6909 11.1089 18.3856 11.3009 18.0503 11.4261C17.715 11.5514 17.3569 11.6073 16.9986 11.5902Z" fill="#EA5C15"/>
<path fill-rule="evenodd" clip-rule="evenodd" d="M40.5092 8.86768C40.5009 8.52571 40.5623 8.18557 40.6898 7.86726C40.8174 7.54895 41.0085 7.25891 41.2519 7.0142C41.4953 6.76949 41.7861 6.57505 42.1072 6.44233C42.4282 6.30961 42.7731 6.24129 43.1215 6.24139C43.6854 6.23941 44.2341 6.42105 44.6817 6.75789L40.5983 9.62054C40.5309 9.38425 40.5009 9.13919 40.5092 8.89394V8.86768ZM45.6089 10.6798C45.323 10.9716 44.9773 11.2005 44.5946 11.3514C44.2119 11.5023 43.801 11.5718 43.3889 11.5552C43.086 11.5664 42.7836 11.5218 42.4974 11.4239L48.5332 7.1781C48.6002 7.13504 48.6495 7.0701 48.6723 6.99479C48.6952 6.91948 48.6901 6.83866 48.6581 6.76665C48.2146 5.69218 47.4537 4.77272 46.4732 4.12676C45.4928 3.48081 44.3378 3.13795 43.1571 3.14238C42.3907 3.14467 41.6322 3.29532 40.9251 3.58572C40.2179 3.87611 39.5761 4.30055 39.0362 4.83474C38.4963 5.36894 38.0689 6.00242 37.7786 6.69894C37.4883 7.39546 37.3406 8.14135 37.3441 8.89394C37.3793 10.445 38.0388 11.9193 39.1784 12.9939C40.318 14.0686 41.8448 14.6562 43.4246 14.628C44.31 14.6429 45.1884 14.4726 46.0016 14.1284C46.8147 13.7843 47.544 13.2742 48.141 12.632C48.1715 12.5959 48.1937 12.5538 48.206 12.5084C48.2184 12.4631 48.2205 12.4156 48.2123 12.3694C48.2087 12.3229 48.1948 12.2776 48.1717 12.2368C48.1487 12.1961 48.1169 12.1606 48.0786 12.133L46.135 10.6623C46.1003 10.6276 46.0587 10.6003 46.0127 10.5822C45.9668 10.5641 45.9175 10.5556 45.868 10.5573C45.8185 10.5589 45.7699 10.5707 45.7253 10.5918C45.6807 10.6129 45.6411 10.6428 45.6089 10.6798Z" fill="#EA5C15"/>
<path fill-rule="evenodd" clip-rule="evenodd" d="M68.2365 5.61986V3.46631C68.2365 3.37344 68.1989 3.28437 68.132 3.2187C68.0652 3.15303 67.9744 3.11614 67.8799 3.11614H65.5707V0.367294C65.5722 0.301824 65.5546 0.237304 65.5198 0.181425C65.485 0.125547 65.4346 0.0806679 65.3746 0.0521397C65.3183 0.0180521 65.2535 0 65.1873 0C65.1212 0 65.0564 0.0180521 65.0001 0.0521397L62.5661 1.803C62.5197 1.83416 62.4816 1.87594 62.4552 1.92473C62.4288 1.97352 62.4149 2.02788 62.4146 2.08313V3.11614H61.0861C60.9916 3.11614 60.9009 3.15303 60.834 3.2187C60.7671 3.28437 60.7295 3.37344 60.7295 3.46631V5.61986C60.7295 5.71273 60.7671 5.8018 60.834 5.86747C60.9009 5.93314 60.9916 5.97003 61.0861 5.97003H62.4235V9.81316C62.4235 12.562 64.6435 14.4704 67.7729 14.6018C67.822 14.607 67.8717 14.601 67.9181 14.5843C67.9645 14.5676 68.0063 14.5406 68.0403 14.5055C68.0756 14.4731 68.1033 14.4337 68.1218 14.3899C68.1402 14.3461 68.1489 14.2989 68.1473 14.2516V11.8792C68.1476 11.7907 68.1137 11.7054 68.0525 11.6404C67.9913 11.5754 67.9073 11.5356 67.8174 11.529C66.5336 11.4502 65.5529 10.8724 65.5529 9.72562V5.97003H67.862C67.9103 5.97241 67.9586 5.96511 68.004 5.94858C68.0493 5.93204 68.0908 5.90663 68.1258 5.87387C68.1608 5.84112 68.1887 5.80171 68.2077 5.75804C68.2268 5.71437 68.2365 5.66736 68.2365 5.61986Z" fill="#EA5C15"/>
<path fill-rule="evenodd" clip-rule="evenodd" d="M75.0037 11.5289C74.6542 11.5314 74.3078 11.4648 73.9851 11.333C73.6624 11.2013 73.3701 11.007 73.1255 10.762C72.8809 10.5169 72.689 10.226 72.5614 9.90652C72.4337 9.58708 72.3729 9.24568 72.3824 8.90267C72.3753 8.56028 72.4379 8.21994 72.5664 7.90159C72.695 7.58324 72.8869 7.29328 73.131 7.04869C73.3751 6.80411 73.6665 6.60981 73.988 6.4772C74.3096 6.34458 74.6549 6.27631 75.0037 6.27638C75.35 6.27479 75.6931 6.3425 76.0119 6.47539C76.3308 6.60828 76.6187 6.80356 76.8581 7.04931C77.0976 7.29507 77.2835 7.58615 77.4046 7.90479C77.5257 8.22344 77.5794 8.56297 77.5624 8.90267C77.5807 9.24267 77.5279 9.58274 77.4073 9.90196C77.2867 10.2212 77.1008 10.5128 76.8611 10.7588C76.6214 11.0048 76.3329 11.2001 76.0135 11.3325C75.6941 11.465 75.3504 11.5318 75.0037 11.5289ZM77.7853 14.6017H80.255C80.3495 14.6017 80.4403 14.5648 80.5071 14.4991C80.574 14.4335 80.6116 14.3444 80.6116 14.2515V3.46626C80.6116 3.37339 80.574 3.28432 80.5071 3.21865C80.4403 3.15298 80.3495 3.11609 80.255 3.11609H77.821C77.7264 3.11609 77.6357 3.15298 77.5688 3.21865C77.5019 3.28432 77.4644 3.37339 77.4644 3.46626V4.11408C76.6967 3.48115 75.7296 3.12854 74.7273 3.11609C73.224 3.17091 71.8033 3.80553 70.7735 4.88227C69.7436 5.95901 69.1877 7.39102 69.2263 8.86765C69.1831 10.3438 69.738 11.7766 70.7693 12.8516C71.8005 13.9265 73.224 14.5559 74.7273 14.6017C75.2304 14.6219 75.7324 14.5415 76.2029 14.3654C76.6734 14.1893 77.1025 13.9213 77.4644 13.5775V14.2515C77.4639 14.3386 77.4966 14.4228 77.5559 14.4875C77.6153 14.5523 77.6971 14.593 77.7853 14.6017Z" fill="#EA5C15"/>
<path fill-rule="evenodd" clip-rule="evenodd" d="M88.8408 4.77933H87.0576C86.9906 4.77929 86.9261 4.80483 86.8779 4.85056C86.8296 4.8963 86.8014 4.95864 86.7991 5.02445V7.78205H83.9995C83.931 7.78205 83.8652 7.80879 83.8167 7.8564C83.7682 7.90401 83.741 7.96859 83.741 8.03592V9.78678C83.741 9.85411 83.7682 9.91868 83.8167 9.96629C83.8652 10.0139 83.931 10.0406 83.9995 10.0406H86.8258V12.8158C86.8258 12.8831 86.8531 12.9477 86.9015 12.9953C86.95 13.0429 87.0158 13.0696 87.0844 13.0696H88.8675C88.9361 13.0696 89.0018 13.0429 89.0503 12.9953C89.0988 12.9477 89.126 12.8831 89.126 12.8158V10.0406H91.9523C92.0209 10.0406 92.0866 10.0139 92.1351 9.96629C92.1836 9.91868 92.2109 9.85411 92.2109 9.78678V8.03592C92.2109 7.96859 92.1836 7.90401 92.1351 7.8564C92.0866 7.80879 92.0209 7.78205 91.9523 7.78205H89.126V5.02445C89.125 4.98952 89.1167 4.95518 89.1015 4.92357C89.0863 4.89197 89.0646 4.86378 89.0379 4.84077C89.0111 4.81776 88.9798 4.80043 88.9458 4.78985C88.9119 4.77928 88.8761 4.7757 88.8408 4.77933Z" fill="#083D93"/>
</svg>
