<svg width="135" height="40" viewBox="0 0 135 40" fill="none" xmlns="http://www.w3.org/2000/svg">
<path d="M130 40H5C2.25 40 0 37.75 0 35V5C0 2.25 2.25 0 5 0H130C132.75 0 135 2.25 135 5V35C135 37.75 132.75 40 130 40Z" fill="black"/>
<path d="M68.14 21.75C65.79 21.75 63.87 23.54 63.87 26C63.87 28.45 65.79 30.25 68.14 30.25C70.49 30.25 72.41 28.45 72.41 26C72.41 23.54 70.49 21.75 68.14 21.75ZM68.14 28.5801C66.85 28.5801 65.74 27.5201 65.74 26C65.74 24.47 66.85 23.42 68.14 23.42C69.43 23.42 70.54 24.47 70.54 26C70.54 27.5201 69.42 28.5801 68.14 28.5801ZM58.82 21.75C56.47 21.75 54.55 23.54 54.55 26C54.55 28.45 56.47 30.25 58.82 30.25C61.17 30.25 63.09 28.45 63.09 26C63.09 23.54 61.17 21.75 58.82 21.75ZM58.82 28.5801C57.53 28.5801 56.42 27.5201 56.42 26C56.42 24.47 57.53 23.42 58.82 23.42C60.11 23.42 61.22 24.47 61.22 26C61.22 27.5201 60.11 28.5801 58.82 28.5801ZM47.74 23.0601V24.8601H52.06C51.93 25.8701 51.59 26.6201 51.08 27.1301C50.45 27.7601 49.47 28.4501 47.75 28.4501C45.09 28.4501 43.01 26.3101 43.01 23.6501C43.01 20.9901 45.09 18.85 47.75 18.85C49.18 18.85 50.23 19.41 51 20.14L52.27 18.8701C51.19 17.8401 49.76 17.05 47.74 17.05C44.1 17.05 41.04 20.01 41.04 23.66C41.04 27.3 44.1 30.2701 47.74 30.2701C49.71 30.2701 51.19 29.63 52.35 28.42C53.54 27.23 53.91 25.5501 53.91 24.2001C53.91 23.7801 53.88 23.39 53.81 23.07H47.74V23.0601ZM93.05 24.46C92.7 23.51 91.62 21.75 89.41 21.75C87.22 21.75 85.4 23.47 85.4 26C85.4 28.38 87.2 30.25 89.62 30.25C91.57 30.25 92.7 29.06 93.16 28.37L91.71 27.4001C91.23 28.1101 90.57 28.5801 89.62 28.5801C88.67 28.5801 87.99 28.1401 87.56 27.2901L93.25 24.94L93.05 24.46ZM87.25 25.8801C87.2 24.2401 88.52 23.4001 89.47 23.4001C90.21 23.4001 90.84 23.77 91.05 24.3L87.25 25.8801ZM82.63 30H84.5V17.5H82.63V30ZM79.57 22.7001H79.5C79.08 22.2001 78.28 21.75 77.26 21.75C75.13 21.75 73.18 23.62 73.18 26.0201C73.18 28.4001 75.13 30.26 77.26 30.26C78.27 30.26 79.08 29.8101 79.5 29.2901H79.56V29.9001C79.56 31.5301 78.69 32.4001 77.29 32.4001C76.15 32.4001 75.44 31.58 75.15 30.89L73.52 31.57C73.99 32.7 75.23 34.0801 77.29 34.0801C79.48 34.0801 81.33 32.7901 81.33 29.6501V22.01H79.56V22.7001H79.57ZM77.42 28.5801C76.13 28.5801 75.05 27.5 75.05 26.0201C75.05 24.5201 76.13 23.43 77.42 23.43C78.69 23.43 79.69 24.5301 79.69 26.0201C79.7 27.5 78.7 28.5801 77.42 28.5801ZM101.81 17.5H97.34V30H99.21V25.26H101.82C103.89 25.26 105.92 23.76 105.92 21.38C105.92 19 103.87 17.5 101.81 17.5ZM101.85 23.5201H99.2V19.23H101.85C103.25 19.23 104.04 20.3901 104.04 21.3701C104.04 22.3501 103.25 23.5201 101.85 23.5201ZM113.39 21.73C112.04 21.73 110.64 22.33 110.06 23.64L111.72 24.3301C112.07 23.6401 112.73 23.41 113.42 23.41C114.38 23.41 115.37 23.9901 115.38 25.0201V25.1501C115.04 24.9601 114.32 24.67 113.43 24.67C111.64 24.67 109.83 25.65 109.83 27.48C109.83 29.15 111.29 30.23 112.93 30.23C114.18 30.23 114.88 29.67 115.31 29.01H115.37V29.98H117.17V25.19C117.18 22.97 115.52 21.73 113.39 21.73ZM113.16 28.5801C112.55 28.5801 111.7 28.2701 111.7 27.5201C111.7 26.5601 112.76 26.19 113.68 26.19C114.5 26.19 114.89 26.3701 115.38 26.6101C115.24 27.76 114.24 28.5801 113.16 28.5801ZM123.74 22L121.6 27.42H121.54L119.32 22H117.31L120.64 29.5801L118.74 33.7901H120.69L125.82 22H123.74ZM106.94 30H108.81V17.5H106.94V30Z" fill="white"/>
<path d="M10.44 7.53997C10.15 7.84997 9.97998 8.32997 9.97998 8.93997V31.06C9.97998 31.68 10.15 32.16 10.44 32.46L10.51 32.53L22.9 20.15V20V19.85L10.51 7.46997L10.44 7.53997Z" fill="url(#paint0_linear)"/>
<path d="M27.03 24.28L22.9 20.15V20V19.85L27.03 15.72L27.12 15.77L32.01 18.55C33.41 19.34 33.41 20.64 32.01 21.44L27.12 24.22L27.03 24.28Z" fill="url(#paint1_linear)"/>
<path d="M27.1199 24.22L22.8999 20L10.4399 32.46C10.8999 32.95 11.6599 33.01 12.5199 32.52L27.1199 24.22Z" fill="url(#paint2_linear)"/>
<path d="M27.1199 15.78L12.5099 7.47999C11.6499 6.98999 10.8899 7.04999 10.4299 7.53999L22.8999 20L27.1199 15.78Z" fill="url(#paint3_linear)"/>
<path opacity="0.2" d="M27.0299 24.13L12.5099 32.38C11.6999 32.84 10.9699 32.81 10.5099 32.39L10.4399 32.46L10.5099 32.53C10.9799 32.95 11.6999 32.98 12.5099 32.52L27.1199 24.22L27.0299 24.13Z" fill="black"/>
<path opacity="0.12" d="M10.44 32.32C10.15 32.01 9.97998 31.53 9.97998 30.92V31.07C9.97998 31.69 10.15 32.17 10.44 32.47L10.51 32.4L10.44 32.32Z" fill="black"/>
<path opacity="0.12" d="M32.01 21.3L27.02 24.13L27.11 24.22L32 21.44C32.7 21.04 33.05 20.52 33.05 20C33 20.47 32.65 20.94 32.01 21.3Z" fill="black"/>
<path opacity="0.25" d="M12.51 7.61994L32.01 18.6999C32.64 19.0599 33 19.5199 33.06 19.9999C33.06 19.4799 32.71 18.9499 32.01 18.5599L12.51 7.47994C11.11 6.68994 9.96997 7.34994 9.96997 8.94994V9.09994C9.96997 7.48994 11.12 6.82994 12.51 7.61994Z" fill="white"/>
<path d="M41.34 13V7H43.18C44.1 7 44.84 7.28 45.39 7.83C45.94 8.39 46.22 9.11 46.22 10C46.22 10.89 45.94 11.61 45.39 12.17C44.83 12.72 44.09 13 43.17 13H41.34ZM42.11 12.26H43.17C43.86 12.26 44.41 12.06 44.82 11.66C45.23 11.26 45.43 10.71 45.43 9.99C45.43 9.28 45.23 8.73 44.82 8.33C44.41 7.93 43.87 7.73 43.17 7.73H42.11V12.26Z" fill="white" stroke="white" stroke-width="0.2" stroke-miterlimit="10"/>
<path d="M47.2999 13V7H48.0699V13H47.2999Z" fill="white" stroke="white" stroke-width="0.2" stroke-miterlimit="10"/>
<path d="M51.1299 13.13C50.6899 13.13 50.2699 12.99 49.8499 12.7C49.4299 12.41 49.1599 12.02 49.0299 11.5L49.7299 11.22C49.8099 11.55 49.9799 11.83 50.2399 12.05C50.4999 12.28 50.7899 12.39 51.1199 12.39C51.4499 12.39 51.7399 12.3 51.9799 12.13C52.2199 11.95 52.3399 11.72 52.3399 11.41C52.3399 11.08 52.2199 10.82 51.9799 10.64C51.7399 10.46 51.3699 10.29 50.8499 10.13C50.3199 9.95998 49.9199 9.74998 49.6399 9.47998C49.3699 9.20998 49.2299 8.87998 49.2299 8.45998C49.2299 8.02998 49.3999 7.65998 49.7399 7.33998C50.0799 7.01998 50.5299 6.85999 51.0699 6.85999C51.5799 6.85999 51.9899 6.98998 52.3099 7.23998C52.6299 7.48998 52.8399 7.76998 52.9299 8.06998L52.2299 8.35999C52.1799 8.16999 52.0599 7.98998 51.8599 7.82998C51.6599 7.66998 51.4099 7.58998 51.0899 7.58998C50.7899 7.58998 50.5399 7.66998 50.3299 7.83998C50.1199 8.00998 50.0199 8.20998 50.0199 8.45998C50.0199 8.67998 50.1199 8.86999 50.3099 9.02999C50.4999 9.17999 50.7899 9.31999 51.1599 9.43999C51.4599 9.53999 51.6999 9.62998 51.8999 9.71998C52.0999 9.80998 52.2999 9.92998 52.4999 10.08C52.6999 10.23 52.8599 10.41 52.9599 10.63C53.0599 10.85 53.1199 11.11 53.1199 11.4C53.1199 11.69 53.0599 11.95 52.9399 12.18C52.8199 12.41 52.6599 12.59 52.4599 12.72C52.2599 12.85 52.0499 12.96 51.8199 13.03C51.6099 13.1 51.3699 13.13 51.1299 13.13Z" fill="white" stroke="white" stroke-width="0.2" stroke-miterlimit="10"/>
<path d="M55.01 13H54.24V7H56.28C56.79 7 57.23 7.17 57.6 7.51C57.97 7.85 58.16 8.27 58.16 8.79C58.16 9.3 57.97 9.73 57.6 10.07C57.23 10.41 56.79 10.58 56.28 10.58H55.01V13ZM55.01 9.83H56.3C56.62 9.83 56.88 9.72 57.08 9.5C57.28 9.28 57.37 9.04 57.37 8.78C57.37 8.52 57.27 8.28 57.08 8.06C56.88 7.84 56.62 7.73 56.3 7.73H55.01V9.83Z" fill="white" stroke="white" stroke-width="0.2" stroke-miterlimit="10"/>
<path d="M64.04 12.22C63.45 12.83 62.72 13.13 61.84 13.13C60.96 13.13 60.23 12.83 59.64 12.22C59.05 11.61 58.76 10.87 58.76 9.99999C58.76 9.12999 59.05 8.37999 59.64 7.77999C60.23 7.16999 60.96 6.87 61.84 6.87C62.71 6.87 63.44 7.16999 64.04 7.77999C64.63 8.38999 64.93 9.12999 64.93 9.99999C64.93 10.88 64.63 11.62 64.04 12.22ZM60.21 11.72C60.65 12.17 61.2 12.39 61.84 12.39C62.48 12.39 63.03 12.17 63.47 11.72C63.91 11.27 64.14 10.7 64.14 9.99999C64.14 9.29999 63.92 8.73 63.47 8.27999C63.03 7.82999 62.48 7.60999 61.84 7.60999C61.2 7.60999 60.65 7.82999 60.21 8.27999C59.77 8.73 59.54 9.29999 59.54 9.99999C59.54 10.7 59.77 11.27 60.21 11.72Z" fill="white" stroke="white" stroke-width="0.2" stroke-miterlimit="10"/>
<path d="M66.01 13V7H66.95L69.87 11.67H69.9L69.87 10.51V7H70.64V13H69.84L66.79 8.11H66.76L66.79 9.27V13H66.01Z" fill="white" stroke="white" stroke-width="0.2" stroke-miterlimit="10"/>
<path d="M72.01 13V6.99996H72.78V13H72.01ZM72.73 6.52996H72.06L72.5 5.45996H73.34L72.73 6.52996Z" fill="white" stroke="white" stroke-width="0.2" stroke-miterlimit="10"/>
<path d="M75.6399 13L73.5299 7H74.3799L76.0199 11.87H76.0499L77.7699 7H78.6199L76.4399 13H75.6399Z" fill="white" stroke="white" stroke-width="0.2" stroke-miterlimit="10"/>
<path d="M83 7.74H80.27V9.64H82.73V10.36H80.27V12.26H83V13H79.5V7H83V7.74Z" fill="white" stroke="white" stroke-width="0.2" stroke-miterlimit="10"/>
<path d="M84.2 13V7H84.97V12.26H87.57V13H84.2Z" fill="white" stroke="white" stroke-width="0.2" stroke-miterlimit="10"/>
<path d="M90.5499 13V7H91.4899L94.4099 11.67H94.4399L94.4099 10.51V7H95.1799V13H94.3799L91.3299 8.11H91.2999L91.3299 9.27V13H90.5499Z" fill="white" stroke="white" stroke-width="0.2" stroke-miterlimit="10"/>
<path d="M101.46 12.22C100.87 12.83 100.14 13.13 99.2599 13.13C98.3799 13.13 97.6499 12.83 97.0599 12.22C96.4699 11.61 96.1799 10.87 96.1799 9.99999C96.1799 9.12999 96.4699 8.37999 97.0599 7.77999C97.6499 7.16999 98.3799 6.87 99.2599 6.87C100.13 6.87 100.86 7.16999 101.46 7.77999C102.05 8.38999 102.35 9.12999 102.35 9.99999C102.34 10.88 102.05 11.62 101.46 12.22ZM97.6299 11.72C98.0699 12.17 98.6199 12.39 99.2599 12.39C99.8999 12.39 100.45 12.17 100.89 11.72C101.33 11.27 101.56 10.7 101.56 9.99999C101.56 9.29999 101.34 8.73 100.89 8.27999C100.45 7.82999 99.8999 7.60999 99.2599 7.60999C98.6199 7.60999 98.0699 7.82999 97.6299 8.27999C97.1899 8.73 96.9599 9.29999 96.9599 9.99999C96.9599 10.7 97.1899 11.27 97.6299 11.72Z" fill="white" stroke="white" stroke-width="0.2" stroke-miterlimit="10"/>
<defs>
<linearGradient id="paint0_linear" x1="21.7997" y1="8.70967" x2="5.01728" y2="25.4921" gradientUnits="userSpaceOnUse">
<stop stop-color="#00A0FF"/>
<stop offset="0.00657445" stop-color="#00A1FF"/>
<stop offset="0.2601" stop-color="#00BEFF"/>
<stop offset="0.5122" stop-color="#00D2FF"/>
<stop offset="0.7604" stop-color="#00DFFF"/>
<stop offset="1" stop-color="#00E3FF"/>
</linearGradient>
<linearGradient id="paint1_linear" x1="33.8344" y1="20.0014" x2="9.63753" y2="20.0014" gradientUnits="userSpaceOnUse">
<stop stop-color="#FFE000"/>
<stop offset="0.4087" stop-color="#FFBD00"/>
<stop offset="0.7754" stop-color="#FFA500"/>
<stop offset="1" stop-color="#FF9C00"/>
</linearGradient>
<linearGradient id="paint2_linear" x1="24.8269" y1="22.2961" x2="2.06864" y2="45.0544" gradientUnits="userSpaceOnUse">
<stop stop-color="#FF3A44"/>
<stop offset="1" stop-color="#C31162"/>
</linearGradient>
<linearGradient id="paint3_linear" x1="7.29723" y1="0.176187" x2="17.4598" y2="10.3387" gradientUnits="userSpaceOnUse">
<stop stop-color="#32A071"/>
<stop offset="0.0685" stop-color="#2DA771"/>
<stop offset="0.4762" stop-color="#15CF74"/>
<stop offset="0.8009" stop-color="#06E775"/>
<stop offset="1" stop-color="#00F076"/>
</linearGradient>
</defs>
</svg>
