<svg width="18" height="18" viewBox="0 0 18 18" fill="none" xmlns="http://www.w3.org/2000/svg">
<path d="M3.59226 5.24203C3.59226 4.3306 4.33148 3.59138 5.24219 3.59138H5.99308C6.42801 3.59138 6.84614 3.41916 7.15555 3.11194L7.68023 2.58653C8.32312 1.94072 9.3681 1.9378 10.0139 2.58069L10.0205 2.58653L10.5459 3.11194C10.8546 3.41916 11.2727 3.59138 11.7084 3.59138H12.4585C13.37 3.59138 14.1092 4.3306 14.1092 5.24203V5.99147C14.1092 6.42785 14.2814 6.84526 14.5886 7.15467L15.114 7.68008C15.7598 8.32297 15.7635 9.36722 15.1206 10.0138L15.114 10.0203L14.5886 10.5457C14.2814 10.8537 14.1092 11.2726 14.1092 11.7075V12.4584C14.1092 13.3698 13.37 14.1083 12.4585 14.1083H11.7084C11.2727 14.1083 10.8546 14.2813 10.5459 14.5885L10.0205 15.1131C9.37832 15.7597 8.33334 15.7626 7.6868 15.1197C7.68461 15.1175 7.68242 15.1153 7.68023 15.1131L7.15555 14.5885C6.84614 14.2813 6.42801 14.1083 5.99308 14.1083H5.24219C4.33148 14.1083 3.59226 13.3698 3.59226 12.4584V11.7075C3.59226 11.2726 3.41931 10.8537 3.11209 10.5457L2.58742 10.0203C1.94087 9.37744 1.93795 8.33246 2.58085 7.68664L2.58742 7.68008L3.11209 7.15467C3.41931 6.84526 3.59226 6.42785 3.59226 5.99147V5.24203" stroke="#F56E28" stroke-linecap="round" stroke-linejoin="round"/>
<path d="M6.9751 10.7251L10.7259 6.97424" stroke="#F56E28" stroke-linecap="round" stroke-linejoin="round"/>
<path d="M10.7236 11.2744C10.5776 11.2744 10.439 11.2161 10.3368 11.1139C10.2857 11.0628 10.2492 10.9971 10.2201 10.9315C10.1909 10.8658 10.1763 10.8008 10.1763 10.7271C10.1763 10.6542 10.1909 10.5812 10.2201 10.5155C10.2492 10.4498 10.2857 10.3915 10.3368 10.3404C10.5411 10.1361 10.906 10.1361 11.1103 10.3404C11.1614 10.3915 11.2052 10.4498 11.2344 10.5155C11.2563 10.5812 11.2709 10.6542 11.2709 10.7271C11.2709 10.8008 11.2563 10.8658 11.2344 10.9315C11.2052 10.9971 11.1614 11.0628 11.1103 11.1139C11.0082 11.2161 10.8695 11.2744 10.7236 11.2744" fill="#F56E28"/>
<path d="M6.97259 7.52389C6.89962 7.52389 6.83394 7.50856 6.76827 7.47937C6.70259 7.45018 6.63692 7.41443 6.58583 7.36335C6.53475 7.30497 6.49827 7.24659 6.46908 7.18091C6.43989 7.11451 6.42529 7.04956 6.42529 6.97659C6.42529 6.90288 6.43989 6.83064 6.46908 6.76496C6.49827 6.69929 6.53475 6.63361 6.58583 6.58983C6.79746 6.38477 7.15503 6.38477 7.35935 6.58983C7.46152 6.69126 7.51989 6.83064 7.51989 6.97659C7.51989 7.04956 7.5126 7.11451 7.48341 7.18091C7.45422 7.24659 7.41043 7.30497 7.35935 7.36335C7.30827 7.41443 7.24989 7.45018 7.18422 7.47937C7.11854 7.50856 7.04557 7.52389 6.97259 7.52389" fill="#F56E28"/>
</svg>
