<svg xmlns="http://www.w3.org/2000/svg" width="47.848" height="37.563" viewBox="0 0 47.848 37.563"><defs><style>.a{fill:#f56e28;fill-rule:evenodd;}</style></defs><g transform="translate(0)"><path class="a" d="M199.678,7.151A33.445,33.445,0,0,1,222.509,16a3.4,3.4,0,0,1,0,4.892h0a3.4,3.4,0,0,1-4.759,0,26.494,26.494,0,0,0-36.305,0,3.4,3.4,0,0,1-4.679-4.946,33.445,33.445,0,0,1,22.911-8.8Z" transform="translate(-175.702 -7.149)"/><path class="a" d="M194.274,11.713a20.612,20.612,0,0,1,14.089,5.347,3.4,3.4,0,0,1,0,4.892h0a3.449,3.449,0,0,1-4.839,0,13.367,13.367,0,0,0-18.714,0,3.449,3.449,0,0,1-4.839,0h0a3.4,3.4,0,0,1,0-4.892,20.612,20.612,0,0,1,14.3-5.347Z" transform="translate(-170.298 0.479)"/><path class="a" d="M189.138,30.1A7.111,7.111,0,1,0,182,22.991a7.111,7.111,0,0,0,7.138,7.111Z" transform="translate(-165.162 7.461)"/></g></svg>