<?xml version="1.0" encoding="UTF-8" standalone="no"?><!DOCTYPE svg PUBLIC "-//W3C//DTD SVG 1.1//EN" "http://www.w3.org/Graphics/SVG/1.1/DTD/svg11.dtd"><svg width="100%" height="100%" viewBox="0 0 35 35" version="1.1" xmlns="http://www.w3.org/2000/svg" xmlns:xlink="http://www.w3.org/1999/xlink" xml:space="preserve" xmlns:serif="http://www.serif.com/" style="fill-rule:evenodd;clip-rule:evenodd;stroke-linejoin:round;stroke-miterlimit:2;"><g><path d="M34.685,5.669c-0,-3.129 -2.54,-5.669 -5.669,-5.669l-23.347,0c-3.129,0 -5.669,2.54 -5.669,5.669l0,23.347c0,3.129 2.54,5.669 5.669,5.669l23.347,-0c3.129,-0 5.669,-2.54 5.669,-5.669l-0,-23.347Z" style="fill:#fdb514;"/><path id="path939" d="M13.903,7.664c-0.716,-0 -1.306,0.589 -1.306,1.305l0,2.962l-2.298,-0c-0.223,-0 -0.407,0.184 -0.407,0.407l-0,12.944c-0,0.001 -0,0.002 -0,0.004c0.011,0.961 0.804,1.741 1.765,1.735c0.063,-0 0.125,-0.004 0.187,-0.011l3.485,0l0,0.01l8.158,0c0.717,0 1.306,-0.589 1.306,-1.306l0,-16.745c0,-0.716 -0.589,-1.305 -1.306,-1.305l-9.584,-0Zm0,0.815l9.584,-0c0.279,-0 0.491,0.211 0.491,0.49l0,16.745c0,0.279 -0.212,0.491 -0.491,0.491l-6.054,0c-0.029,-0.006 -0.059,-0.01 -0.089,-0.01l-4.211,0c0.17,-0.27 0.269,-0.588 0.269,-0.929l-0,-9.915l0.01,0l0,-2.89c0.013,-0.04 0.019,-0.081 0.019,-0.123c0,-0.041 -0.006,-0.083 -0.019,-0.123l0,-3.246c0,-0.279 0.212,-0.49 0.491,-0.49l0,-0Zm3.078,0.997c-0.223,0 -0.407,0.184 -0.407,0.408c-0,0.223 0.184,0.407 0.407,0.407c0,0 0,0 0,0c0.224,0 0.408,-0.184 0.408,-0.407c-0,-0.224 -0.184,-0.408 -0.408,-0.408c0,0 0,0 0,0Zm1.174,0c0,0 0,0 0,0c-0.223,0 -0.407,0.184 -0.407,0.408c-0,0.223 0.184,0.407 0.407,0.407c0,0 0,0 0,0l1.904,0c0.224,0 0.408,-0.184 0.408,-0.407c-0,-0.224 -0.184,-0.408 -0.408,-0.408l-1.904,0Zm-3.322,1.694c-0.223,0 -0.407,0.184 -0.407,0.408l-0,5.929c-0,0.224 0.184,0.408 0.407,0.408c0.224,-0 0.408,-0.184 0.408,-0.408l-0,-5.522l6.847,0l0,12.935c0,-0 0,-0 0,-0c0,0.223 0.184,0.407 0.408,0.407c0.223,0 0.407,-0.184 0.407,-0.407c0,-0 0,-0 0,-0l0,-13.342c0,-0.224 -0.184,-0.408 -0.407,-0.408l-7.663,0Zm-4.126,1.576l1.89,-0l0,0.782c-0.007,0.03 -0.01,0.06 -0.01,0.09l0,11.648c0,0.477 -0.344,0.863 -0.801,0.929l-0.104,0c-0.028,0 -0.056,0.003 -0.084,0.009c-0.496,-0.025 -0.886,-0.424 -0.891,-0.927l-0,-12.531Zm4.344,6.233c-0.223,-0 -0.407,0.184 -0.407,0.407c-0,0 -0,0 -0,0c-0,0.224 0.184,0.408 0.407,0.408l5.662,-0c0.223,-0 0.407,-0.184 0.407,-0.408c0,0 0,0 0,0c0,-0.223 -0.184,-0.407 -0.407,-0.407l-5.662,-0Zm0,1.96c-0.223,0 -0.407,0.184 -0.407,0.408c-0,0.223 0.184,0.407 0.407,0.407l5.662,0c0.223,0 0.407,-0.184 0.407,-0.407c0,-0.224 -0.184,-0.408 -0.407,-0.408l-5.662,0Zm2.848,1.971l-0,-0c-0.579,-0 -1.055,0.476 -1.055,1.055l-0,0c-0,0.579 0.476,1.055 1.055,1.055l-0,0c0.579,0 1.055,-0.476 1.055,-1.055l0,-0c0,-0.579 -0.476,-1.055 -1.055,-1.055Z" style="fill:#fff;fill-rule:nonzero;"/></g></svg>