<svg width="18" height="18" viewBox="0 0 18 18" fill="none" xmlns="http://www.w3.org/2000/svg">
<path fill-rule="evenodd" clip-rule="evenodd" d="M2.73053 7.56469C4.38628 6.1052 6.51764 5.29993 8.72482 5.29993C10.932 5.29993 13.0633 6.1052 14.7191 7.56469C14.9262 7.74729 15.2422 7.72739 15.4248 7.52024C15.6074 7.31308 15.5875 6.99713 15.3803 6.81453C13.5419 5.19403 11.1755 4.29993 8.72482 4.29993C6.27416 4.29993 3.90768 5.19403 2.06928 6.81453C1.86213 6.99713 1.84223 7.31308 2.02483 7.52024C2.20742 7.72739 2.52338 7.74729 2.73053 7.56469ZM4.86012 9.69602C5.9519 8.78665 7.32786 8.28867 8.74875 8.28867C10.1696 8.28867 11.5456 8.78665 12.6374 9.69602C12.8496 9.87275 13.1648 9.84401 13.3416 9.63183C13.5183 9.41965 13.4896 9.10438 13.2774 8.92765C12.0059 7.86861 10.4035 7.28867 8.74875 7.28867C7.094 7.28867 5.49158 7.86861 4.22012 8.92765C4.00793 9.10438 3.9792 9.41965 4.15593 9.63183C4.33266 9.84401 4.64793 9.87275 4.86012 9.69602ZM8.72792 11.2772C8.08722 11.2772 7.46239 11.4766 6.94009 11.8477C6.71498 12.0076 6.40283 11.9547 6.2429 11.7296C6.08297 11.5045 6.13581 11.1924 6.36092 11.0324C7.05243 10.5412 7.87967 10.2772 8.72792 10.2772C9.57618 10.2772 10.4034 10.5412 11.0949 11.0324C11.32 11.1924 11.3729 11.5045 11.2129 11.7296C11.053 11.9547 10.7409 12.0076 10.5158 11.8477C9.99345 11.4766 9.36862 11.2772 8.72792 11.2772ZM8.72486 13.0156C8.31065 13.0156 7.97486 13.3513 7.97486 13.7656C7.97486 14.1798 8.31065 14.5156 8.72486 14.5156H8.7316C9.14581 14.5156 9.4816 14.1798 9.4816 13.7656C9.4816 13.3513 9.14581 13.0156 8.7316 13.0156H8.72486Z" fill="#F56E28"/>
</svg>
