<svg xmlns="http://www.w3.org/2000/svg" xmlns:xlink="http://www.w3.org/1999/xlink" width="200.193" height="369.087" viewBox="0 0 200.193 369.087"><defs><style>.a{fill:none;}.b{opacity:0.7;clip-path:url(#a);}.c{fill:#f56e28;fill-rule:evenodd;}</style><clipPath id="a"><rect class="a" width="200.193" height="369.087"/></clipPath></defs><g transform="translate(-1719.807 -1854.876)"><g class="b" transform="translate(1719.807 1854.876)"><path class="c" d="M18.195,12.5a19.671,19.671,0,0,0-.1-2.005l-.162-1.216a19.539,19.539,0,0,0-.794-3.153L16.708,5A19.591,19.591,0,0,0,13.9.248a.614.614,0,0,0-1.09.387c0,5.956-2.177,9.835-5.889,12.63l-.946.667-.125.081A31.526,31.526,0,0,1,.556,16.626.705.705,0,0,0,.678,18.02,20.606,20.606,0,0,1,7.459,21.05a21.22,21.22,0,0,1,2.454,2.1,12.882,12.882,0,0,1,1.577,1.786,4.393,4.393,0,0,1,.429.851.6.6,0,0,0,.985.119,19.607,19.607,0,0,0,4.311-7.259h0v-.015a.143.143,0,0,1,.015-.044.134.134,0,0,0,0-.02l.364-1.254a19.631,19.631,0,0,0,.448-2.41v-.019a.161.161,0,0,0,0-.021.035.035,0,0,0,0-.011l.107-1.248C18.184,13.241,18.195,12.874,18.195,12.5Z" transform="translate(-0.002 -0.022)"/><g transform="translate(29)"><path class="c" d="M18.195,12.5a19.671,19.671,0,0,0-.1-2.005l-.162-1.216a19.539,19.539,0,0,0-.794-3.153L16.708,5A19.591,19.591,0,0,0,13.9.248a.614.614,0,0,0-1.09.387c0,5.956-2.177,9.835-5.889,12.63l-.946.667-.125.081A31.526,31.526,0,0,1,.556,16.626.705.705,0,0,0,.678,18.02,20.606,20.606,0,0,1,7.459,21.05a21.22,21.22,0,0,1,2.454,2.1,12.882,12.882,0,0,1,1.577,1.786,4.393,4.393,0,0,1,.429.851.6.6,0,0,0,.985.119,19.607,19.607,0,0,0,4.311-7.259h0v-.015a.143.143,0,0,1,.015-.044.134.134,0,0,0,0-.02l.364-1.254a19.631,19.631,0,0,0,.448-2.41v-.019a.161.161,0,0,0,0-.021.035.035,0,0,0,0-.011l.107-1.248C18.184,13.241,18.195,12.874,18.195,12.5Z" transform="translate(-0.002 -0.022)"/></g><g transform="translate(58)"><path class="c" d="M18.195,12.5a19.671,19.671,0,0,0-.1-2.005l-.162-1.216a19.539,19.539,0,0,0-.794-3.153L16.708,5A19.591,19.591,0,0,0,13.9.248a.614.614,0,0,0-1.09.387c0,5.956-2.177,9.835-5.889,12.63l-.946.667-.125.081A31.526,31.526,0,0,1,.556,16.626.705.705,0,0,0,.678,18.02,20.606,20.606,0,0,1,7.459,21.05a21.22,21.22,0,0,1,2.454,2.1,12.882,12.882,0,0,1,1.577,1.786,4.393,4.393,0,0,1,.429.851.6.6,0,0,0,.985.119,19.607,19.607,0,0,0,4.311-7.259h0v-.015a.143.143,0,0,1,.015-.044.134.134,0,0,0,0-.02l.364-1.254a19.631,19.631,0,0,0,.448-2.41v-.019a.161.161,0,0,0,0-.021.035.035,0,0,0,0-.011l.107-1.248C18.184,13.241,18.195,12.874,18.195,12.5Z" transform="translate(-0.002 -0.022)"/></g><g transform="translate(87)"><path class="c" d="M18.195,12.5a19.671,19.671,0,0,0-.1-2.005l-.162-1.216a19.539,19.539,0,0,0-.794-3.153L16.708,5A19.591,19.591,0,0,0,13.9.248a.614.614,0,0,0-1.09.387c0,5.956-2.177,9.835-5.889,12.63l-.946.667-.125.081A31.526,31.526,0,0,1,.556,16.626.705.705,0,0,0,.678,18.02,20.606,20.606,0,0,1,7.459,21.05a21.22,21.22,0,0,1,2.454,2.1,12.882,12.882,0,0,1,1.577,1.786,4.393,4.393,0,0,1,.429.851.6.6,0,0,0,.985.119,19.607,19.607,0,0,0,4.311-7.259h0v-.015a.143.143,0,0,1,.015-.044.134.134,0,0,0,0-.02l.364-1.254a19.631,19.631,0,0,0,.448-2.41v-.019a.161.161,0,0,0,0-.021.035.035,0,0,0,0-.011l.107-1.248C18.184,13.241,18.195,12.874,18.195,12.5Z" transform="translate(-0.002 -0.022)"/></g><g transform="translate(116)"><path class="c" d="M18.195,12.5a19.671,19.671,0,0,0-.1-2.005l-.162-1.216a19.539,19.539,0,0,0-.794-3.153L16.708,5A19.591,19.591,0,0,0,13.9.248a.614.614,0,0,0-1.09.387c0,5.956-2.177,9.835-5.889,12.63l-.946.667-.125.081A31.526,31.526,0,0,1,.556,16.626.705.705,0,0,0,.678,18.02,20.606,20.606,0,0,1,7.459,21.05a21.22,21.22,0,0,1,2.454,2.1,12.882,12.882,0,0,1,1.577,1.786,4.393,4.393,0,0,1,.429.851.6.6,0,0,0,.985.119,19.607,19.607,0,0,0,4.311-7.259h0v-.015a.143.143,0,0,1,.015-.044.134.134,0,0,0,0-.02l.364-1.254a19.631,19.631,0,0,0,.448-2.41v-.019a.161.161,0,0,0,0-.021.035.035,0,0,0,0-.011l.107-1.248C18.184,13.241,18.195,12.874,18.195,12.5Z" transform="translate(-0.002 -0.022)"/></g><g transform="translate(145)"><path class="c" d="M18.195,12.5a19.671,19.671,0,0,0-.1-2.005l-.162-1.216a19.539,19.539,0,0,0-.794-3.153L16.708,5A19.591,19.591,0,0,0,13.9.248a.614.614,0,0,0-1.09.387c0,5.956-2.177,9.835-5.889,12.63l-.946.667-.125.081A31.526,31.526,0,0,1,.556,16.626.705.705,0,0,0,.678,18.02,20.606,20.606,0,0,1,7.459,21.05a21.22,21.22,0,0,1,2.454,2.1,12.882,12.882,0,0,1,1.577,1.786,4.393,4.393,0,0,1,.429.851.6.6,0,0,0,.985.119,19.607,19.607,0,0,0,4.311-7.259h0v-.015a.143.143,0,0,1,.015-.044.134.134,0,0,0,0-.02l.364-1.254a19.631,19.631,0,0,0,.448-2.41v-.019a.161.161,0,0,0,0-.021.035.035,0,0,0,0-.011l.107-1.248C18.184,13.241,18.195,12.874,18.195,12.5Z" transform="translate(-0.002 -0.022)"/></g><g transform="translate(174)"><path class="c" d="M18.195,12.5a19.671,19.671,0,0,0-.1-2.005l-.162-1.216a19.539,19.539,0,0,0-.794-3.153L16.708,5A19.591,19.591,0,0,0,13.9.248a.614.614,0,0,0-1.09.387c0,5.956-2.177,9.835-5.889,12.63l-.946.667-.125.081A31.526,31.526,0,0,1,.556,16.626.705.705,0,0,0,.678,18.02,20.606,20.606,0,0,1,7.459,21.05a21.22,21.22,0,0,1,2.454,2.1,12.882,12.882,0,0,1,1.577,1.786,4.393,4.393,0,0,1,.429.851.6.6,0,0,0,.985.119,19.607,19.607,0,0,0,4.311-7.259h0v-.015a.143.143,0,0,1,.015-.044.134.134,0,0,0,0-.02l.364-1.254a19.631,19.631,0,0,0,.448-2.41v-.019a.161.161,0,0,0,0-.021.035.035,0,0,0,0-.011l.107-1.248C18.184,13.241,18.195,12.874,18.195,12.5Z" transform="translate(-0.002 -0.022)"/></g><g transform="translate(0 47)"><path class="c" d="M18.195,12.5a19.671,19.671,0,0,0-.1-2.005l-.162-1.216a19.539,19.539,0,0,0-.794-3.153L16.708,5A19.591,19.591,0,0,0,13.9.248a.614.614,0,0,0-1.09.387c0,5.956-2.177,9.835-5.889,12.63l-.946.667-.125.081A31.526,31.526,0,0,1,.556,16.626.705.705,0,0,0,.678,18.02,20.606,20.606,0,0,1,7.459,21.05a21.22,21.22,0,0,1,2.454,2.1,12.882,12.882,0,0,1,1.577,1.786,4.393,4.393,0,0,1,.429.851.6.6,0,0,0,.985.119,19.607,19.607,0,0,0,4.311-7.259h0v-.015a.143.143,0,0,1,.015-.044.134.134,0,0,0,0-.02l.364-1.254a19.631,19.631,0,0,0,.448-2.41v-.019a.161.161,0,0,0,0-.021.035.035,0,0,0,0-.011l.107-1.248C18.184,13.241,18.195,12.874,18.195,12.5Z" transform="translate(-0.002 -0.022)"/></g><g transform="translate(29 47)"><path class="c" d="M18.195,12.5a19.671,19.671,0,0,0-.1-2.005l-.162-1.216a19.539,19.539,0,0,0-.794-3.153L16.708,5A19.591,19.591,0,0,0,13.9.248a.614.614,0,0,0-1.09.387c0,5.956-2.177,9.835-5.889,12.63l-.946.667-.125.081A31.526,31.526,0,0,1,.556,16.626.705.705,0,0,0,.678,18.02,20.606,20.606,0,0,1,7.459,21.05a21.22,21.22,0,0,1,2.454,2.1,12.882,12.882,0,0,1,1.577,1.786,4.393,4.393,0,0,1,.429.851.6.6,0,0,0,.985.119,19.607,19.607,0,0,0,4.311-7.259h0v-.015a.143.143,0,0,1,.015-.044.134.134,0,0,0,0-.02l.364-1.254a19.631,19.631,0,0,0,.448-2.41v-.019a.161.161,0,0,0,0-.021.035.035,0,0,0,0-.011l.107-1.248C18.184,13.241,18.195,12.874,18.195,12.5Z" transform="translate(-0.002 -0.022)"/></g><g transform="translate(58 47)"><path class="c" d="M18.195,12.5a19.671,19.671,0,0,0-.1-2.005l-.162-1.216a19.539,19.539,0,0,0-.794-3.153L16.708,5A19.591,19.591,0,0,0,13.9.248a.614.614,0,0,0-1.09.387c0,5.956-2.177,9.835-5.889,12.63l-.946.667-.125.081A31.526,31.526,0,0,1,.556,16.626.705.705,0,0,0,.678,18.02,20.606,20.606,0,0,1,7.459,21.05a21.22,21.22,0,0,1,2.454,2.1,12.882,12.882,0,0,1,1.577,1.786,4.393,4.393,0,0,1,.429.851.6.6,0,0,0,.985.119,19.607,19.607,0,0,0,4.311-7.259h0v-.015a.143.143,0,0,1,.015-.044.134.134,0,0,0,0-.02l.364-1.254a19.631,19.631,0,0,0,.448-2.41v-.019a.161.161,0,0,0,0-.021.035.035,0,0,0,0-.011l.107-1.248C18.184,13.241,18.195,12.874,18.195,12.5Z" transform="translate(-0.002 -0.022)"/></g><g transform="translate(87 47)"><path class="c" d="M18.195,12.5a19.671,19.671,0,0,0-.1-2.005l-.162-1.216a19.539,19.539,0,0,0-.794-3.153L16.708,5A19.591,19.591,0,0,0,13.9.248a.614.614,0,0,0-1.09.387c0,5.956-2.177,9.835-5.889,12.63l-.946.667-.125.081A31.526,31.526,0,0,1,.556,16.626.705.705,0,0,0,.678,18.02,20.606,20.606,0,0,1,7.459,21.05a21.22,21.22,0,0,1,2.454,2.1,12.882,12.882,0,0,1,1.577,1.786,4.393,4.393,0,0,1,.429.851.6.6,0,0,0,.985.119,19.607,19.607,0,0,0,4.311-7.259h0v-.015a.143.143,0,0,1,.015-.044.134.134,0,0,0,0-.02l.364-1.254a19.631,19.631,0,0,0,.448-2.41v-.019a.161.161,0,0,0,0-.021.035.035,0,0,0,0-.011l.107-1.248C18.184,13.241,18.195,12.874,18.195,12.5Z" transform="translate(-0.002 -0.022)"/></g><g transform="translate(116 47)"><path class="c" d="M18.195,12.5a19.671,19.671,0,0,0-.1-2.005l-.162-1.216a19.539,19.539,0,0,0-.794-3.153L16.708,5A19.591,19.591,0,0,0,13.9.248a.614.614,0,0,0-1.09.387c0,5.956-2.177,9.835-5.889,12.63l-.946.667-.125.081A31.526,31.526,0,0,1,.556,16.626.705.705,0,0,0,.678,18.02,20.606,20.606,0,0,1,7.459,21.05a21.22,21.22,0,0,1,2.454,2.1,12.882,12.882,0,0,1,1.577,1.786,4.393,4.393,0,0,1,.429.851.6.6,0,0,0,.985.119,19.607,19.607,0,0,0,4.311-7.259h0v-.015a.143.143,0,0,1,.015-.044.134.134,0,0,0,0-.02l.364-1.254a19.631,19.631,0,0,0,.448-2.41v-.019a.161.161,0,0,0,0-.021.035.035,0,0,0,0-.011l.107-1.248C18.184,13.241,18.195,12.874,18.195,12.5Z" transform="translate(-0.002 -0.022)"/></g><g transform="translate(145 47)"><path class="c" d="M18.195,12.5a19.671,19.671,0,0,0-.1-2.005l-.162-1.216a19.539,19.539,0,0,0-.794-3.153L16.708,5A19.591,19.591,0,0,0,13.9.248a.614.614,0,0,0-1.09.387c0,5.956-2.177,9.835-5.889,12.63l-.946.667-.125.081A31.526,31.526,0,0,1,.556,16.626.705.705,0,0,0,.678,18.02,20.606,20.606,0,0,1,7.459,21.05a21.22,21.22,0,0,1,2.454,2.1,12.882,12.882,0,0,1,1.577,1.786,4.393,4.393,0,0,1,.429.851.6.6,0,0,0,.985.119,19.607,19.607,0,0,0,4.311-7.259h0v-.015a.143.143,0,0,1,.015-.044.134.134,0,0,0,0-.02l.364-1.254a19.631,19.631,0,0,0,.448-2.41v-.019a.161.161,0,0,0,0-.021.035.035,0,0,0,0-.011l.107-1.248C18.184,13.241,18.195,12.874,18.195,12.5Z" transform="translate(-0.002 -0.022)"/></g><g transform="translate(174 47)"><path class="c" d="M18.195,12.5a19.671,19.671,0,0,0-.1-2.005l-.162-1.216a19.539,19.539,0,0,0-.794-3.153L16.708,5A19.591,19.591,0,0,0,13.9.248a.614.614,0,0,0-1.09.387c0,5.956-2.177,9.835-5.889,12.63l-.946.667-.125.081A31.526,31.526,0,0,1,.556,16.626.705.705,0,0,0,.678,18.02,20.606,20.606,0,0,1,7.459,21.05a21.22,21.22,0,0,1,2.454,2.1,12.882,12.882,0,0,1,1.577,1.786,4.393,4.393,0,0,1,.429.851.6.6,0,0,0,.985.119,19.607,19.607,0,0,0,4.311-7.259h0v-.015a.143.143,0,0,1,.015-.044.134.134,0,0,0,0-.02l.364-1.254a19.631,19.631,0,0,0,.448-2.41v-.019a.161.161,0,0,0,0-.021.035.035,0,0,0,0-.011l.107-1.248C18.184,13.241,18.195,12.874,18.195,12.5Z" transform="translate(-0.002 -0.022)"/></g><g transform="translate(0 94)"><path class="c" d="M18.195,12.5a19.671,19.671,0,0,0-.1-2.005l-.162-1.216a19.539,19.539,0,0,0-.794-3.153L16.708,5A19.591,19.591,0,0,0,13.9.248a.614.614,0,0,0-1.09.387c0,5.956-2.177,9.835-5.889,12.63l-.946.667-.125.081A31.526,31.526,0,0,1,.556,16.626.705.705,0,0,0,.678,18.02,20.606,20.606,0,0,1,7.459,21.05a21.22,21.22,0,0,1,2.454,2.1,12.882,12.882,0,0,1,1.577,1.786,4.393,4.393,0,0,1,.429.851.6.6,0,0,0,.985.119,19.607,19.607,0,0,0,4.311-7.259h0v-.015a.143.143,0,0,1,.015-.044.134.134,0,0,0,0-.02l.364-1.254a19.631,19.631,0,0,0,.448-2.41v-.019a.161.161,0,0,0,0-.021.035.035,0,0,0,0-.011l.107-1.248C18.184,13.241,18.195,12.874,18.195,12.5Z" transform="translate(-0.002 -0.022)"/></g><g transform="translate(29 94)"><path class="c" d="M18.195,12.5a19.671,19.671,0,0,0-.1-2.005l-.162-1.216a19.539,19.539,0,0,0-.794-3.153L16.708,5A19.591,19.591,0,0,0,13.9.248a.614.614,0,0,0-1.09.387c0,5.956-2.177,9.835-5.889,12.63l-.946.667-.125.081A31.526,31.526,0,0,1,.556,16.626.705.705,0,0,0,.678,18.02,20.606,20.606,0,0,1,7.459,21.05a21.22,21.22,0,0,1,2.454,2.1,12.882,12.882,0,0,1,1.577,1.786,4.393,4.393,0,0,1,.429.851.6.6,0,0,0,.985.119,19.607,19.607,0,0,0,4.311-7.259h0v-.015a.143.143,0,0,1,.015-.044.134.134,0,0,0,0-.02l.364-1.254a19.631,19.631,0,0,0,.448-2.41v-.019a.161.161,0,0,0,0-.021.035.035,0,0,0,0-.011l.107-1.248C18.184,13.241,18.195,12.874,18.195,12.5Z" transform="translate(-0.002 -0.022)"/></g><g transform="translate(58 94)"><path class="c" d="M18.195,12.5a19.671,19.671,0,0,0-.1-2.005l-.162-1.216a19.539,19.539,0,0,0-.794-3.153L16.708,5A19.591,19.591,0,0,0,13.9.248a.614.614,0,0,0-1.09.387c0,5.956-2.177,9.835-5.889,12.63l-.946.667-.125.081A31.526,31.526,0,0,1,.556,16.626.705.705,0,0,0,.678,18.02,20.606,20.606,0,0,1,7.459,21.05a21.22,21.22,0,0,1,2.454,2.1,12.882,12.882,0,0,1,1.577,1.786,4.393,4.393,0,0,1,.429.851.6.6,0,0,0,.985.119,19.607,19.607,0,0,0,4.311-7.259h0v-.015a.143.143,0,0,1,.015-.044.134.134,0,0,0,0-.02l.364-1.254a19.631,19.631,0,0,0,.448-2.41v-.019a.161.161,0,0,0,0-.021.035.035,0,0,0,0-.011l.107-1.248C18.184,13.241,18.195,12.874,18.195,12.5Z" transform="translate(-0.002 -0.022)"/></g><g transform="translate(87 94)"><path class="c" d="M18.195,12.5a19.671,19.671,0,0,0-.1-2.005l-.162-1.216a19.539,19.539,0,0,0-.794-3.153L16.708,5A19.591,19.591,0,0,0,13.9.248a.614.614,0,0,0-1.09.387c0,5.956-2.177,9.835-5.889,12.63l-.946.667-.125.081A31.526,31.526,0,0,1,.556,16.626.705.705,0,0,0,.678,18.02,20.606,20.606,0,0,1,7.459,21.05a21.22,21.22,0,0,1,2.454,2.1,12.882,12.882,0,0,1,1.577,1.786,4.393,4.393,0,0,1,.429.851.6.6,0,0,0,.985.119,19.607,19.607,0,0,0,4.311-7.259h0v-.015a.143.143,0,0,1,.015-.044.134.134,0,0,0,0-.02l.364-1.254a19.631,19.631,0,0,0,.448-2.41v-.019a.161.161,0,0,0,0-.021.035.035,0,0,0,0-.011l.107-1.248C18.184,13.241,18.195,12.874,18.195,12.5Z" transform="translate(-0.002 -0.022)"/></g><g transform="translate(116 94)"><path class="c" d="M18.195,12.5a19.671,19.671,0,0,0-.1-2.005l-.162-1.216a19.539,19.539,0,0,0-.794-3.153L16.708,5A19.591,19.591,0,0,0,13.9.248a.614.614,0,0,0-1.09.387c0,5.956-2.177,9.835-5.889,12.63l-.946.667-.125.081A31.526,31.526,0,0,1,.556,16.626.705.705,0,0,0,.678,18.02,20.606,20.606,0,0,1,7.459,21.05a21.22,21.22,0,0,1,2.454,2.1,12.882,12.882,0,0,1,1.577,1.786,4.393,4.393,0,0,1,.429.851.6.6,0,0,0,.985.119,19.607,19.607,0,0,0,4.311-7.259h0v-.015a.143.143,0,0,1,.015-.044.134.134,0,0,0,0-.02l.364-1.254a19.631,19.631,0,0,0,.448-2.41v-.019a.161.161,0,0,0,0-.021.035.035,0,0,0,0-.011l.107-1.248C18.184,13.241,18.195,12.874,18.195,12.5Z" transform="translate(-0.002 -0.022)"/></g><g transform="translate(145 94)"><path class="c" d="M18.195,12.5a19.671,19.671,0,0,0-.1-2.005l-.162-1.216a19.539,19.539,0,0,0-.794-3.153L16.708,5A19.591,19.591,0,0,0,13.9.248a.614.614,0,0,0-1.09.387c0,5.956-2.177,9.835-5.889,12.63l-.946.667-.125.081A31.526,31.526,0,0,1,.556,16.626.705.705,0,0,0,.678,18.02,20.606,20.606,0,0,1,7.459,21.05a21.22,21.22,0,0,1,2.454,2.1,12.882,12.882,0,0,1,1.577,1.786,4.393,4.393,0,0,1,.429.851.6.6,0,0,0,.985.119,19.607,19.607,0,0,0,4.311-7.259h0v-.015a.143.143,0,0,1,.015-.044.134.134,0,0,0,0-.02l.364-1.254a19.631,19.631,0,0,0,.448-2.41v-.019a.161.161,0,0,0,0-.021.035.035,0,0,0,0-.011l.107-1.248C18.184,13.241,18.195,12.874,18.195,12.5Z" transform="translate(-0.002 -0.022)"/></g><g transform="translate(174 94)"><path class="c" d="M18.195,12.5a19.671,19.671,0,0,0-.1-2.005l-.162-1.216a19.539,19.539,0,0,0-.794-3.153L16.708,5A19.591,19.591,0,0,0,13.9.248a.614.614,0,0,0-1.09.387c0,5.956-2.177,9.835-5.889,12.63l-.946.667-.125.081A31.526,31.526,0,0,1,.556,16.626.705.705,0,0,0,.678,18.02,20.606,20.606,0,0,1,7.459,21.05a21.22,21.22,0,0,1,2.454,2.1,12.882,12.882,0,0,1,1.577,1.786,4.393,4.393,0,0,1,.429.851.6.6,0,0,0,.985.119,19.607,19.607,0,0,0,4.311-7.259h0v-.015a.143.143,0,0,1,.015-.044.134.134,0,0,0,0-.02l.364-1.254a19.631,19.631,0,0,0,.448-2.41v-.019a.161.161,0,0,0,0-.021.035.035,0,0,0,0-.011l.107-1.248C18.184,13.241,18.195,12.874,18.195,12.5Z" transform="translate(-0.002 -0.022)"/></g><g transform="translate(0 141)"><path class="c" d="M18.195,12.5a19.671,19.671,0,0,0-.1-2.005l-.162-1.216a19.539,19.539,0,0,0-.794-3.153L16.708,5A19.591,19.591,0,0,0,13.9.248a.614.614,0,0,0-1.09.387c0,5.956-2.177,9.835-5.889,12.63l-.946.667-.125.081A31.526,31.526,0,0,1,.556,16.626.705.705,0,0,0,.678,18.02,20.606,20.606,0,0,1,7.459,21.05a21.22,21.22,0,0,1,2.454,2.1,12.882,12.882,0,0,1,1.577,1.786,4.393,4.393,0,0,1,.429.851.6.6,0,0,0,.985.119,19.607,19.607,0,0,0,4.311-7.259h0v-.015a.143.143,0,0,1,.015-.044.134.134,0,0,0,0-.02l.364-1.254a19.631,19.631,0,0,0,.448-2.41v-.019a.161.161,0,0,0,0-.021.035.035,0,0,0,0-.011l.107-1.248C18.184,13.241,18.195,12.874,18.195,12.5Z" transform="translate(-0.002 -0.022)"/></g><g transform="translate(29 141)"><path class="c" d="M18.195,12.5a19.671,19.671,0,0,0-.1-2.005l-.162-1.216a19.539,19.539,0,0,0-.794-3.153L16.708,5A19.591,19.591,0,0,0,13.9.248a.614.614,0,0,0-1.09.387c0,5.956-2.177,9.835-5.889,12.63l-.946.667-.125.081A31.526,31.526,0,0,1,.556,16.626.705.705,0,0,0,.678,18.02,20.606,20.606,0,0,1,7.459,21.05a21.22,21.22,0,0,1,2.454,2.1,12.882,12.882,0,0,1,1.577,1.786,4.393,4.393,0,0,1,.429.851.6.6,0,0,0,.985.119,19.607,19.607,0,0,0,4.311-7.259h0v-.015a.143.143,0,0,1,.015-.044.134.134,0,0,0,0-.02l.364-1.254a19.631,19.631,0,0,0,.448-2.41v-.019a.161.161,0,0,0,0-.021.035.035,0,0,0,0-.011l.107-1.248C18.184,13.241,18.195,12.874,18.195,12.5Z" transform="translate(-0.002 -0.022)"/></g><g transform="translate(58 141)"><path class="c" d="M18.195,12.5a19.671,19.671,0,0,0-.1-2.005l-.162-1.216a19.539,19.539,0,0,0-.794-3.153L16.708,5A19.591,19.591,0,0,0,13.9.248a.614.614,0,0,0-1.09.387c0,5.956-2.177,9.835-5.889,12.63l-.946.667-.125.081A31.526,31.526,0,0,1,.556,16.626.705.705,0,0,0,.678,18.02,20.606,20.606,0,0,1,7.459,21.05a21.22,21.22,0,0,1,2.454,2.1,12.882,12.882,0,0,1,1.577,1.786,4.393,4.393,0,0,1,.429.851.6.6,0,0,0,.985.119,19.607,19.607,0,0,0,4.311-7.259h0v-.015a.143.143,0,0,1,.015-.044.134.134,0,0,0,0-.02l.364-1.254a19.631,19.631,0,0,0,.448-2.41v-.019a.161.161,0,0,0,0-.021.035.035,0,0,0,0-.011l.107-1.248C18.184,13.241,18.195,12.874,18.195,12.5Z" transform="translate(-0.002 -0.022)"/></g><g transform="translate(87 141)"><path class="c" d="M18.195,12.5a19.671,19.671,0,0,0-.1-2.005l-.162-1.216a19.539,19.539,0,0,0-.794-3.153L16.708,5A19.591,19.591,0,0,0,13.9.248a.614.614,0,0,0-1.09.387c0,5.956-2.177,9.835-5.889,12.63l-.946.667-.125.081A31.526,31.526,0,0,1,.556,16.626.705.705,0,0,0,.678,18.02,20.606,20.606,0,0,1,7.459,21.05a21.22,21.22,0,0,1,2.454,2.1,12.882,12.882,0,0,1,1.577,1.786,4.393,4.393,0,0,1,.429.851.6.6,0,0,0,.985.119,19.607,19.607,0,0,0,4.311-7.259h0v-.015a.143.143,0,0,1,.015-.044.134.134,0,0,0,0-.02l.364-1.254a19.631,19.631,0,0,0,.448-2.41v-.019a.161.161,0,0,0,0-.021.035.035,0,0,0,0-.011l.107-1.248C18.184,13.241,18.195,12.874,18.195,12.5Z" transform="translate(-0.002 -0.022)"/></g><g transform="translate(116 141)"><path class="c" d="M18.195,12.5a19.671,19.671,0,0,0-.1-2.005l-.162-1.216a19.539,19.539,0,0,0-.794-3.153L16.708,5A19.591,19.591,0,0,0,13.9.248a.614.614,0,0,0-1.09.387c0,5.956-2.177,9.835-5.889,12.63l-.946.667-.125.081A31.526,31.526,0,0,1,.556,16.626.705.705,0,0,0,.678,18.02,20.606,20.606,0,0,1,7.459,21.05a21.22,21.22,0,0,1,2.454,2.1,12.882,12.882,0,0,1,1.577,1.786,4.393,4.393,0,0,1,.429.851.6.6,0,0,0,.985.119,19.607,19.607,0,0,0,4.311-7.259h0v-.015a.143.143,0,0,1,.015-.044.134.134,0,0,0,0-.02l.364-1.254a19.631,19.631,0,0,0,.448-2.41v-.019a.161.161,0,0,0,0-.021.035.035,0,0,0,0-.011l.107-1.248C18.184,13.241,18.195,12.874,18.195,12.5Z" transform="translate(-0.002 -0.022)"/></g><g transform="translate(145 141)"><path class="c" d="M18.195,12.5a19.671,19.671,0,0,0-.1-2.005l-.162-1.216a19.539,19.539,0,0,0-.794-3.153L16.708,5A19.591,19.591,0,0,0,13.9.248a.614.614,0,0,0-1.09.387c0,5.956-2.177,9.835-5.889,12.63l-.946.667-.125.081A31.526,31.526,0,0,1,.556,16.626.705.705,0,0,0,.678,18.02,20.606,20.606,0,0,1,7.459,21.05a21.22,21.22,0,0,1,2.454,2.1,12.882,12.882,0,0,1,1.577,1.786,4.393,4.393,0,0,1,.429.851.6.6,0,0,0,.985.119,19.607,19.607,0,0,0,4.311-7.259h0v-.015a.143.143,0,0,1,.015-.044.134.134,0,0,0,0-.02l.364-1.254a19.631,19.631,0,0,0,.448-2.41v-.019a.161.161,0,0,0,0-.021.035.035,0,0,0,0-.011l.107-1.248C18.184,13.241,18.195,12.874,18.195,12.5Z" transform="translate(-0.002 -0.022)"/></g><g transform="translate(174 141)"><path class="c" d="M18.195,12.5a19.671,19.671,0,0,0-.1-2.005l-.162-1.216a19.539,19.539,0,0,0-.794-3.153L16.708,5A19.591,19.591,0,0,0,13.9.248a.614.614,0,0,0-1.09.387c0,5.956-2.177,9.835-5.889,12.63l-.946.667-.125.081A31.526,31.526,0,0,1,.556,16.626.705.705,0,0,0,.678,18.02,20.606,20.606,0,0,1,7.459,21.05a21.22,21.22,0,0,1,2.454,2.1,12.882,12.882,0,0,1,1.577,1.786,4.393,4.393,0,0,1,.429.851.6.6,0,0,0,.985.119,19.607,19.607,0,0,0,4.311-7.259h0v-.015a.143.143,0,0,1,.015-.044.134.134,0,0,0,0-.02l.364-1.254a19.631,19.631,0,0,0,.448-2.41v-.019a.161.161,0,0,0,0-.021.035.035,0,0,0,0-.011l.107-1.248C18.184,13.241,18.195,12.874,18.195,12.5Z" transform="translate(-0.002 -0.022)"/></g><g transform="translate(0 188)"><path class="c" d="M18.195,12.5a19.671,19.671,0,0,0-.1-2.005l-.162-1.216a19.539,19.539,0,0,0-.794-3.153L16.708,5A19.591,19.591,0,0,0,13.9.248a.614.614,0,0,0-1.09.387c0,5.956-2.177,9.835-5.889,12.63l-.946.667-.125.081A31.526,31.526,0,0,1,.556,16.626.705.705,0,0,0,.678,18.02,20.606,20.606,0,0,1,7.459,21.05a21.22,21.22,0,0,1,2.454,2.1,12.882,12.882,0,0,1,1.577,1.786,4.393,4.393,0,0,1,.429.851.6.6,0,0,0,.985.119,19.607,19.607,0,0,0,4.311-7.259h0v-.015a.143.143,0,0,1,.015-.044.134.134,0,0,0,0-.02l.364-1.254a19.631,19.631,0,0,0,.448-2.41v-.019a.161.161,0,0,0,0-.021.035.035,0,0,0,0-.011l.107-1.248C18.184,13.241,18.195,12.874,18.195,12.5Z" transform="translate(-0.002 -0.022)"/></g><g transform="translate(29 188)"><path class="c" d="M18.195,12.5a19.671,19.671,0,0,0-.1-2.005l-.162-1.216a19.539,19.539,0,0,0-.794-3.153L16.708,5A19.591,19.591,0,0,0,13.9.248a.614.614,0,0,0-1.09.387c0,5.956-2.177,9.835-5.889,12.63l-.946.667-.125.081A31.526,31.526,0,0,1,.556,16.626.705.705,0,0,0,.678,18.02,20.606,20.606,0,0,1,7.459,21.05a21.22,21.22,0,0,1,2.454,2.1,12.882,12.882,0,0,1,1.577,1.786,4.393,4.393,0,0,1,.429.851.6.6,0,0,0,.985.119,19.607,19.607,0,0,0,4.311-7.259h0v-.015a.143.143,0,0,1,.015-.044.134.134,0,0,0,0-.02l.364-1.254a19.631,19.631,0,0,0,.448-2.41v-.019a.161.161,0,0,0,0-.021.035.035,0,0,0,0-.011l.107-1.248C18.184,13.241,18.195,12.874,18.195,12.5Z" transform="translate(-0.002 -0.022)"/></g><g transform="translate(58 188)"><path class="c" d="M18.195,12.5a19.671,19.671,0,0,0-.1-2.005l-.162-1.216a19.539,19.539,0,0,0-.794-3.153L16.708,5A19.591,19.591,0,0,0,13.9.248a.614.614,0,0,0-1.09.387c0,5.956-2.177,9.835-5.889,12.63l-.946.667-.125.081A31.526,31.526,0,0,1,.556,16.626.705.705,0,0,0,.678,18.02,20.606,20.606,0,0,1,7.459,21.05a21.22,21.22,0,0,1,2.454,2.1,12.882,12.882,0,0,1,1.577,1.786,4.393,4.393,0,0,1,.429.851.6.6,0,0,0,.985.119,19.607,19.607,0,0,0,4.311-7.259h0v-.015a.143.143,0,0,1,.015-.044.134.134,0,0,0,0-.02l.364-1.254a19.631,19.631,0,0,0,.448-2.41v-.019a.161.161,0,0,0,0-.021.035.035,0,0,0,0-.011l.107-1.248C18.184,13.241,18.195,12.874,18.195,12.5Z" transform="translate(-0.002 -0.022)"/></g><g transform="translate(87 188)"><path class="c" d="M18.195,12.5a19.671,19.671,0,0,0-.1-2.005l-.162-1.216a19.539,19.539,0,0,0-.794-3.153L16.708,5A19.591,19.591,0,0,0,13.9.248a.614.614,0,0,0-1.09.387c0,5.956-2.177,9.835-5.889,12.63l-.946.667-.125.081A31.526,31.526,0,0,1,.556,16.626.705.705,0,0,0,.678,18.02,20.606,20.606,0,0,1,7.459,21.05a21.22,21.22,0,0,1,2.454,2.1,12.882,12.882,0,0,1,1.577,1.786,4.393,4.393,0,0,1,.429.851.6.6,0,0,0,.985.119,19.607,19.607,0,0,0,4.311-7.259h0v-.015a.143.143,0,0,1,.015-.044.134.134,0,0,0,0-.02l.364-1.254a19.631,19.631,0,0,0,.448-2.41v-.019a.161.161,0,0,0,0-.021.035.035,0,0,0,0-.011l.107-1.248C18.184,13.241,18.195,12.874,18.195,12.5Z" transform="translate(-0.002 -0.022)"/></g><g transform="translate(116 188)"><path class="c" d="M18.195,12.5a19.671,19.671,0,0,0-.1-2.005l-.162-1.216a19.539,19.539,0,0,0-.794-3.153L16.708,5A19.591,19.591,0,0,0,13.9.248a.614.614,0,0,0-1.09.387c0,5.956-2.177,9.835-5.889,12.63l-.946.667-.125.081A31.526,31.526,0,0,1,.556,16.626.705.705,0,0,0,.678,18.02,20.606,20.606,0,0,1,7.459,21.05a21.22,21.22,0,0,1,2.454,2.1,12.882,12.882,0,0,1,1.577,1.786,4.393,4.393,0,0,1,.429.851.6.6,0,0,0,.985.119,19.607,19.607,0,0,0,4.311-7.259h0v-.015a.143.143,0,0,1,.015-.044.134.134,0,0,0,0-.02l.364-1.254a19.631,19.631,0,0,0,.448-2.41v-.019a.161.161,0,0,0,0-.021.035.035,0,0,0,0-.011l.107-1.248C18.184,13.241,18.195,12.874,18.195,12.5Z" transform="translate(-0.002 -0.022)"/></g><g transform="translate(145 188)"><path class="c" d="M18.195,12.5a19.671,19.671,0,0,0-.1-2.005l-.162-1.216a19.539,19.539,0,0,0-.794-3.153L16.708,5A19.591,19.591,0,0,0,13.9.248a.614.614,0,0,0-1.09.387c0,5.956-2.177,9.835-5.889,12.63l-.946.667-.125.081A31.526,31.526,0,0,1,.556,16.626.705.705,0,0,0,.678,18.02,20.606,20.606,0,0,1,7.459,21.05a21.22,21.22,0,0,1,2.454,2.1,12.882,12.882,0,0,1,1.577,1.786,4.393,4.393,0,0,1,.429.851.6.6,0,0,0,.985.119,19.607,19.607,0,0,0,4.311-7.259h0v-.015a.143.143,0,0,1,.015-.044.134.134,0,0,0,0-.02l.364-1.254a19.631,19.631,0,0,0,.448-2.41v-.019a.161.161,0,0,0,0-.021.035.035,0,0,0,0-.011l.107-1.248C18.184,13.241,18.195,12.874,18.195,12.5Z" transform="translate(-0.002 -0.022)"/></g><g transform="translate(174 188)"><path class="c" d="M18.195,12.5a19.671,19.671,0,0,0-.1-2.005l-.162-1.216a19.539,19.539,0,0,0-.794-3.153L16.708,5A19.591,19.591,0,0,0,13.9.248a.614.614,0,0,0-1.09.387c0,5.956-2.177,9.835-5.889,12.63l-.946.667-.125.081A31.526,31.526,0,0,1,.556,16.626.705.705,0,0,0,.678,18.02,20.606,20.606,0,0,1,7.459,21.05a21.22,21.22,0,0,1,2.454,2.1,12.882,12.882,0,0,1,1.577,1.786,4.393,4.393,0,0,1,.429.851.6.6,0,0,0,.985.119,19.607,19.607,0,0,0,4.311-7.259h0v-.015a.143.143,0,0,1,.015-.044.134.134,0,0,0,0-.02l.364-1.254a19.631,19.631,0,0,0,.448-2.41v-.019a.161.161,0,0,0,0-.021.035.035,0,0,0,0-.011l.107-1.248C18.184,13.241,18.195,12.874,18.195,12.5Z" transform="translate(-0.002 -0.022)"/></g><g transform="translate(0 235)"><path class="c" d="M18.195,12.5a19.671,19.671,0,0,0-.1-2.005l-.162-1.216a19.539,19.539,0,0,0-.794-3.153L16.708,5A19.591,19.591,0,0,0,13.9.248a.614.614,0,0,0-1.09.387c0,5.956-2.177,9.835-5.889,12.63l-.946.667-.125.081A31.526,31.526,0,0,1,.556,16.626.705.705,0,0,0,.678,18.02,20.606,20.606,0,0,1,7.459,21.05a21.22,21.22,0,0,1,2.454,2.1,12.882,12.882,0,0,1,1.577,1.786,4.393,4.393,0,0,1,.429.851.6.6,0,0,0,.985.119,19.607,19.607,0,0,0,4.311-7.259h0v-.015a.143.143,0,0,1,.015-.044.134.134,0,0,0,0-.02l.364-1.254a19.631,19.631,0,0,0,.448-2.41v-.019a.161.161,0,0,0,0-.021.035.035,0,0,0,0-.011l.107-1.248C18.184,13.241,18.195,12.874,18.195,12.5Z" transform="translate(-0.002 -0.022)"/></g><g transform="translate(29 235)"><path class="c" d="M18.195,12.5a19.671,19.671,0,0,0-.1-2.005l-.162-1.216a19.539,19.539,0,0,0-.794-3.153L16.708,5A19.591,19.591,0,0,0,13.9.248a.614.614,0,0,0-1.09.387c0,5.956-2.177,9.835-5.889,12.63l-.946.667-.125.081A31.526,31.526,0,0,1,.556,16.626.705.705,0,0,0,.678,18.02,20.606,20.606,0,0,1,7.459,21.05a21.22,21.22,0,0,1,2.454,2.1,12.882,12.882,0,0,1,1.577,1.786,4.393,4.393,0,0,1,.429.851.6.6,0,0,0,.985.119,19.607,19.607,0,0,0,4.311-7.259h0v-.015a.143.143,0,0,1,.015-.044.134.134,0,0,0,0-.02l.364-1.254a19.631,19.631,0,0,0,.448-2.41v-.019a.161.161,0,0,0,0-.021.035.035,0,0,0,0-.011l.107-1.248C18.184,13.241,18.195,12.874,18.195,12.5Z" transform="translate(-0.002 -0.022)"/></g><g transform="translate(58 235)"><path class="c" d="M18.195,12.5a19.671,19.671,0,0,0-.1-2.005l-.162-1.216a19.539,19.539,0,0,0-.794-3.153L16.708,5A19.591,19.591,0,0,0,13.9.248a.614.614,0,0,0-1.09.387c0,5.956-2.177,9.835-5.889,12.63l-.946.667-.125.081A31.526,31.526,0,0,1,.556,16.626.705.705,0,0,0,.678,18.02,20.606,20.606,0,0,1,7.459,21.05a21.22,21.22,0,0,1,2.454,2.1,12.882,12.882,0,0,1,1.577,1.786,4.393,4.393,0,0,1,.429.851.6.6,0,0,0,.985.119,19.607,19.607,0,0,0,4.311-7.259h0v-.015a.143.143,0,0,1,.015-.044.134.134,0,0,0,0-.02l.364-1.254a19.631,19.631,0,0,0,.448-2.41v-.019a.161.161,0,0,0,0-.021.035.035,0,0,0,0-.011l.107-1.248C18.184,13.241,18.195,12.874,18.195,12.5Z" transform="translate(-0.002 -0.022)"/></g><g transform="translate(87 235)"><path class="c" d="M18.195,12.5a19.671,19.671,0,0,0-.1-2.005l-.162-1.216a19.539,19.539,0,0,0-.794-3.153L16.708,5A19.591,19.591,0,0,0,13.9.248a.614.614,0,0,0-1.09.387c0,5.956-2.177,9.835-5.889,12.63l-.946.667-.125.081A31.526,31.526,0,0,1,.556,16.626.705.705,0,0,0,.678,18.02,20.606,20.606,0,0,1,7.459,21.05a21.22,21.22,0,0,1,2.454,2.1,12.882,12.882,0,0,1,1.577,1.786,4.393,4.393,0,0,1,.429.851.6.6,0,0,0,.985.119,19.607,19.607,0,0,0,4.311-7.259h0v-.015a.143.143,0,0,1,.015-.044.134.134,0,0,0,0-.02l.364-1.254a19.631,19.631,0,0,0,.448-2.41v-.019a.161.161,0,0,0,0-.021.035.035,0,0,0,0-.011l.107-1.248C18.184,13.241,18.195,12.874,18.195,12.5Z" transform="translate(-0.002 -0.022)"/></g><g transform="translate(116 235)"><path class="c" d="M18.195,12.5a19.671,19.671,0,0,0-.1-2.005l-.162-1.216a19.539,19.539,0,0,0-.794-3.153L16.708,5A19.591,19.591,0,0,0,13.9.248a.614.614,0,0,0-1.09.387c0,5.956-2.177,9.835-5.889,12.63l-.946.667-.125.081A31.526,31.526,0,0,1,.556,16.626.705.705,0,0,0,.678,18.02,20.606,20.606,0,0,1,7.459,21.05a21.22,21.22,0,0,1,2.454,2.1,12.882,12.882,0,0,1,1.577,1.786,4.393,4.393,0,0,1,.429.851.6.6,0,0,0,.985.119,19.607,19.607,0,0,0,4.311-7.259h0v-.015a.143.143,0,0,1,.015-.044.134.134,0,0,0,0-.02l.364-1.254a19.631,19.631,0,0,0,.448-2.41v-.019a.161.161,0,0,0,0-.021.035.035,0,0,0,0-.011l.107-1.248C18.184,13.241,18.195,12.874,18.195,12.5Z" transform="translate(-0.002 -0.022)"/></g><g transform="translate(145 235)"><path class="c" d="M18.195,12.5a19.671,19.671,0,0,0-.1-2.005l-.162-1.216a19.539,19.539,0,0,0-.794-3.153L16.708,5A19.591,19.591,0,0,0,13.9.248a.614.614,0,0,0-1.09.387c0,5.956-2.177,9.835-5.889,12.63l-.946.667-.125.081A31.526,31.526,0,0,1,.556,16.626.705.705,0,0,0,.678,18.02,20.606,20.606,0,0,1,7.459,21.05a21.22,21.22,0,0,1,2.454,2.1,12.882,12.882,0,0,1,1.577,1.786,4.393,4.393,0,0,1,.429.851.6.6,0,0,0,.985.119,19.607,19.607,0,0,0,4.311-7.259h0v-.015a.143.143,0,0,1,.015-.044.134.134,0,0,0,0-.02l.364-1.254a19.631,19.631,0,0,0,.448-2.41v-.019a.161.161,0,0,0,0-.021.035.035,0,0,0,0-.011l.107-1.248C18.184,13.241,18.195,12.874,18.195,12.5Z" transform="translate(-0.002 -0.022)"/></g><g transform="translate(174 235)"><path class="c" d="M18.195,12.5a19.671,19.671,0,0,0-.1-2.005l-.162-1.216a19.539,19.539,0,0,0-.794-3.153L16.708,5A19.591,19.591,0,0,0,13.9.248a.614.614,0,0,0-1.09.387c0,5.956-2.177,9.835-5.889,12.63l-.946.667-.125.081A31.526,31.526,0,0,1,.556,16.626.705.705,0,0,0,.678,18.02,20.606,20.606,0,0,1,7.459,21.05a21.22,21.22,0,0,1,2.454,2.1,12.882,12.882,0,0,1,1.577,1.786,4.393,4.393,0,0,1,.429.851.6.6,0,0,0,.985.119,19.607,19.607,0,0,0,4.311-7.259h0v-.015a.143.143,0,0,1,.015-.044.134.134,0,0,0,0-.02l.364-1.254a19.631,19.631,0,0,0,.448-2.41v-.019a.161.161,0,0,0,0-.021.035.035,0,0,0,0-.011l.107-1.248C18.184,13.241,18.195,12.874,18.195,12.5Z" transform="translate(-0.002 -0.022)"/></g><g transform="translate(0 282)"><path class="c" d="M18.195,12.5a19.671,19.671,0,0,0-.1-2.005l-.162-1.216a19.539,19.539,0,0,0-.794-3.153L16.708,5A19.591,19.591,0,0,0,13.9.248a.614.614,0,0,0-1.09.387c0,5.956-2.177,9.835-5.889,12.63l-.946.667-.125.081A31.526,31.526,0,0,1,.556,16.626.705.705,0,0,0,.678,18.02,20.606,20.606,0,0,1,7.459,21.05a21.22,21.22,0,0,1,2.454,2.1,12.882,12.882,0,0,1,1.577,1.786,4.393,4.393,0,0,1,.429.851.6.6,0,0,0,.985.119,19.607,19.607,0,0,0,4.311-7.259h0v-.015a.143.143,0,0,1,.015-.044.134.134,0,0,0,0-.02l.364-1.254a19.631,19.631,0,0,0,.448-2.41v-.019a.161.161,0,0,0,0-.021.035.035,0,0,0,0-.011l.107-1.248C18.184,13.241,18.195,12.874,18.195,12.5Z" transform="translate(-0.002 -0.022)"/></g><g transform="translate(29 282)"><path class="c" d="M18.195,12.5a19.671,19.671,0,0,0-.1-2.005l-.162-1.216a19.539,19.539,0,0,0-.794-3.153L16.708,5A19.591,19.591,0,0,0,13.9.248a.614.614,0,0,0-1.09.387c0,5.956-2.177,9.835-5.889,12.63l-.946.667-.125.081A31.526,31.526,0,0,1,.556,16.626.705.705,0,0,0,.678,18.02,20.606,20.606,0,0,1,7.459,21.05a21.22,21.22,0,0,1,2.454,2.1,12.882,12.882,0,0,1,1.577,1.786,4.393,4.393,0,0,1,.429.851.6.6,0,0,0,.985.119,19.607,19.607,0,0,0,4.311-7.259h0v-.015a.143.143,0,0,1,.015-.044.134.134,0,0,0,0-.02l.364-1.254a19.631,19.631,0,0,0,.448-2.41v-.019a.161.161,0,0,0,0-.021.035.035,0,0,0,0-.011l.107-1.248C18.184,13.241,18.195,12.874,18.195,12.5Z" transform="translate(-0.002 -0.022)"/></g><g transform="translate(58 282)"><path class="c" d="M18.195,12.5a19.671,19.671,0,0,0-.1-2.005l-.162-1.216a19.539,19.539,0,0,0-.794-3.153L16.708,5A19.591,19.591,0,0,0,13.9.248a.614.614,0,0,0-1.09.387c0,5.956-2.177,9.835-5.889,12.63l-.946.667-.125.081A31.526,31.526,0,0,1,.556,16.626.705.705,0,0,0,.678,18.02,20.606,20.606,0,0,1,7.459,21.05a21.22,21.22,0,0,1,2.454,2.1,12.882,12.882,0,0,1,1.577,1.786,4.393,4.393,0,0,1,.429.851.6.6,0,0,0,.985.119,19.607,19.607,0,0,0,4.311-7.259h0v-.015a.143.143,0,0,1,.015-.044.134.134,0,0,0,0-.02l.364-1.254a19.631,19.631,0,0,0,.448-2.41v-.019a.161.161,0,0,0,0-.021.035.035,0,0,0,0-.011l.107-1.248C18.184,13.241,18.195,12.874,18.195,12.5Z" transform="translate(-0.002 -0.022)"/></g><g transform="translate(87 282)"><path class="c" d="M18.195,12.5a19.671,19.671,0,0,0-.1-2.005l-.162-1.216a19.539,19.539,0,0,0-.794-3.153L16.708,5A19.591,19.591,0,0,0,13.9.248a.614.614,0,0,0-1.09.387c0,5.956-2.177,9.835-5.889,12.63l-.946.667-.125.081A31.526,31.526,0,0,1,.556,16.626.705.705,0,0,0,.678,18.02,20.606,20.606,0,0,1,7.459,21.05a21.22,21.22,0,0,1,2.454,2.1,12.882,12.882,0,0,1,1.577,1.786,4.393,4.393,0,0,1,.429.851.6.6,0,0,0,.985.119,19.607,19.607,0,0,0,4.311-7.259h0v-.015a.143.143,0,0,1,.015-.044.134.134,0,0,0,0-.02l.364-1.254a19.631,19.631,0,0,0,.448-2.41v-.019a.161.161,0,0,0,0-.021.035.035,0,0,0,0-.011l.107-1.248C18.184,13.241,18.195,12.874,18.195,12.5Z" transform="translate(-0.002 -0.022)"/></g><g transform="translate(116 282)"><path class="c" d="M18.195,12.5a19.671,19.671,0,0,0-.1-2.005l-.162-1.216a19.539,19.539,0,0,0-.794-3.153L16.708,5A19.591,19.591,0,0,0,13.9.248a.614.614,0,0,0-1.09.387c0,5.956-2.177,9.835-5.889,12.63l-.946.667-.125.081A31.526,31.526,0,0,1,.556,16.626.705.705,0,0,0,.678,18.02,20.606,20.606,0,0,1,7.459,21.05a21.22,21.22,0,0,1,2.454,2.1,12.882,12.882,0,0,1,1.577,1.786,4.393,4.393,0,0,1,.429.851.6.6,0,0,0,.985.119,19.607,19.607,0,0,0,4.311-7.259h0v-.015a.143.143,0,0,1,.015-.044.134.134,0,0,0,0-.02l.364-1.254a19.631,19.631,0,0,0,.448-2.41v-.019a.161.161,0,0,0,0-.021.035.035,0,0,0,0-.011l.107-1.248C18.184,13.241,18.195,12.874,18.195,12.5Z" transform="translate(-0.002 -0.022)"/></g><g transform="translate(145 282)"><path class="c" d="M18.195,12.5a19.671,19.671,0,0,0-.1-2.005l-.162-1.216a19.539,19.539,0,0,0-.794-3.153L16.708,5A19.591,19.591,0,0,0,13.9.248a.614.614,0,0,0-1.09.387c0,5.956-2.177,9.835-5.889,12.63l-.946.667-.125.081A31.526,31.526,0,0,1,.556,16.626.705.705,0,0,0,.678,18.02,20.606,20.606,0,0,1,7.459,21.05a21.22,21.22,0,0,1,2.454,2.1,12.882,12.882,0,0,1,1.577,1.786,4.393,4.393,0,0,1,.429.851.6.6,0,0,0,.985.119,19.607,19.607,0,0,0,4.311-7.259h0v-.015a.143.143,0,0,1,.015-.044.134.134,0,0,0,0-.02l.364-1.254a19.631,19.631,0,0,0,.448-2.41v-.019a.161.161,0,0,0,0-.021.035.035,0,0,0,0-.011l.107-1.248C18.184,13.241,18.195,12.874,18.195,12.5Z" transform="translate(-0.002 -0.022)"/></g><g transform="translate(174 282)"><path class="c" d="M18.195,12.5a19.671,19.671,0,0,0-.1-2.005l-.162-1.216a19.539,19.539,0,0,0-.794-3.153L16.708,5A19.591,19.591,0,0,0,13.9.248a.614.614,0,0,0-1.09.387c0,5.956-2.177,9.835-5.889,12.63l-.946.667-.125.081A31.526,31.526,0,0,1,.556,16.626.705.705,0,0,0,.678,18.02,20.606,20.606,0,0,1,7.459,21.05a21.22,21.22,0,0,1,2.454,2.1,12.882,12.882,0,0,1,1.577,1.786,4.393,4.393,0,0,1,.429.851.6.6,0,0,0,.985.119,19.607,19.607,0,0,0,4.311-7.259h0v-.015a.143.143,0,0,1,.015-.044.134.134,0,0,0,0-.02l.364-1.254a19.631,19.631,0,0,0,.448-2.41v-.019a.161.161,0,0,0,0-.021.035.035,0,0,0,0-.011l.107-1.248C18.184,13.241,18.195,12.874,18.195,12.5Z" transform="translate(-0.002 -0.022)"/></g><g transform="translate(0 329)"><path class="c" d="M18.195,12.5a19.671,19.671,0,0,0-.1-2.005l-.162-1.216a19.539,19.539,0,0,0-.794-3.153L16.708,5A19.591,19.591,0,0,0,13.9.248a.614.614,0,0,0-1.09.387c0,5.956-2.177,9.835-5.889,12.63l-.946.667-.125.081A31.526,31.526,0,0,1,.556,16.626.705.705,0,0,0,.678,18.02,20.606,20.606,0,0,1,7.459,21.05a21.22,21.22,0,0,1,2.454,2.1,12.882,12.882,0,0,1,1.577,1.786,4.393,4.393,0,0,1,.429.851.6.6,0,0,0,.985.119,19.607,19.607,0,0,0,4.311-7.259h0v-.015a.143.143,0,0,1,.015-.044.134.134,0,0,0,0-.02l.364-1.254a19.631,19.631,0,0,0,.448-2.41v-.019a.161.161,0,0,0,0-.021.035.035,0,0,0,0-.011l.107-1.248C18.184,13.241,18.195,12.874,18.195,12.5Z" transform="translate(-0.002 -0.022)"/></g><g transform="translate(29 329)"><path class="c" d="M18.195,12.5a19.671,19.671,0,0,0-.1-2.005l-.162-1.216a19.539,19.539,0,0,0-.794-3.153L16.708,5A19.591,19.591,0,0,0,13.9.248a.614.614,0,0,0-1.09.387c0,5.956-2.177,9.835-5.889,12.63l-.946.667-.125.081A31.526,31.526,0,0,1,.556,16.626.705.705,0,0,0,.678,18.02,20.606,20.606,0,0,1,7.459,21.05a21.22,21.22,0,0,1,2.454,2.1,12.882,12.882,0,0,1,1.577,1.786,4.393,4.393,0,0,1,.429.851.6.6,0,0,0,.985.119,19.607,19.607,0,0,0,4.311-7.259h0v-.015a.143.143,0,0,1,.015-.044.134.134,0,0,0,0-.02l.364-1.254a19.631,19.631,0,0,0,.448-2.41v-.019a.161.161,0,0,0,0-.021.035.035,0,0,0,0-.011l.107-1.248C18.184,13.241,18.195,12.874,18.195,12.5Z" transform="translate(-0.002 -0.022)"/></g><g transform="translate(58 329)"><path class="c" d="M18.195,12.5a19.671,19.671,0,0,0-.1-2.005l-.162-1.216a19.539,19.539,0,0,0-.794-3.153L16.708,5A19.591,19.591,0,0,0,13.9.248a.614.614,0,0,0-1.09.387c0,5.956-2.177,9.835-5.889,12.63l-.946.667-.125.081A31.526,31.526,0,0,1,.556,16.626.705.705,0,0,0,.678,18.02,20.606,20.606,0,0,1,7.459,21.05a21.22,21.22,0,0,1,2.454,2.1,12.882,12.882,0,0,1,1.577,1.786,4.393,4.393,0,0,1,.429.851.6.6,0,0,0,.985.119,19.607,19.607,0,0,0,4.311-7.259h0v-.015a.143.143,0,0,1,.015-.044.134.134,0,0,0,0-.02l.364-1.254a19.631,19.631,0,0,0,.448-2.41v-.019a.161.161,0,0,0,0-.021.035.035,0,0,0,0-.011l.107-1.248C18.184,13.241,18.195,12.874,18.195,12.5Z" transform="translate(-0.002 -0.022)"/></g><g transform="translate(87 329)"><path class="c" d="M18.195,12.5a19.671,19.671,0,0,0-.1-2.005l-.162-1.216a19.539,19.539,0,0,0-.794-3.153L16.708,5A19.591,19.591,0,0,0,13.9.248a.614.614,0,0,0-1.09.387c0,5.956-2.177,9.835-5.889,12.63l-.946.667-.125.081A31.526,31.526,0,0,1,.556,16.626.705.705,0,0,0,.678,18.02,20.606,20.606,0,0,1,7.459,21.05a21.22,21.22,0,0,1,2.454,2.1,12.882,12.882,0,0,1,1.577,1.786,4.393,4.393,0,0,1,.429.851.6.6,0,0,0,.985.119,19.607,19.607,0,0,0,4.311-7.259h0v-.015a.143.143,0,0,1,.015-.044.134.134,0,0,0,0-.02l.364-1.254a19.631,19.631,0,0,0,.448-2.41v-.019a.161.161,0,0,0,0-.021.035.035,0,0,0,0-.011l.107-1.248C18.184,13.241,18.195,12.874,18.195,12.5Z" transform="translate(-0.002 -0.022)"/></g><g transform="translate(116 329)"><path class="c" d="M18.195,12.5a19.671,19.671,0,0,0-.1-2.005l-.162-1.216a19.539,19.539,0,0,0-.794-3.153L16.708,5A19.591,19.591,0,0,0,13.9.248a.614.614,0,0,0-1.09.387c0,5.956-2.177,9.835-5.889,12.63l-.946.667-.125.081A31.526,31.526,0,0,1,.556,16.626.705.705,0,0,0,.678,18.02,20.606,20.606,0,0,1,7.459,21.05a21.22,21.22,0,0,1,2.454,2.1,12.882,12.882,0,0,1,1.577,1.786,4.393,4.393,0,0,1,.429.851.6.6,0,0,0,.985.119,19.607,19.607,0,0,0,4.311-7.259h0v-.015a.143.143,0,0,1,.015-.044.134.134,0,0,0,0-.02l.364-1.254a19.631,19.631,0,0,0,.448-2.41v-.019a.161.161,0,0,0,0-.021.035.035,0,0,0,0-.011l.107-1.248C18.184,13.241,18.195,12.874,18.195,12.5Z" transform="translate(-0.002 -0.022)"/></g><g transform="translate(145 329)"><path class="c" d="M18.195,12.5a19.671,19.671,0,0,0-.1-2.005l-.162-1.216a19.539,19.539,0,0,0-.794-3.153L16.708,5A19.591,19.591,0,0,0,13.9.248a.614.614,0,0,0-1.09.387c0,5.956-2.177,9.835-5.889,12.63l-.946.667-.125.081A31.526,31.526,0,0,1,.556,16.626.705.705,0,0,0,.678,18.02,20.606,20.606,0,0,1,7.459,21.05a21.22,21.22,0,0,1,2.454,2.1,12.882,12.882,0,0,1,1.577,1.786,4.393,4.393,0,0,1,.429.851.6.6,0,0,0,.985.119,19.607,19.607,0,0,0,4.311-7.259h0v-.015a.143.143,0,0,1,.015-.044.134.134,0,0,0,0-.02l.364-1.254a19.631,19.631,0,0,0,.448-2.41v-.019a.161.161,0,0,0,0-.021.035.035,0,0,0,0-.011l.107-1.248C18.184,13.241,18.195,12.874,18.195,12.5Z" transform="translate(-0.002 -0.022)"/></g><g transform="translate(174 329)"><path class="c" d="M18.195,12.5a19.671,19.671,0,0,0-.1-2.005l-.162-1.216a19.539,19.539,0,0,0-.794-3.153L16.708,5A19.591,19.591,0,0,0,13.9.248a.614.614,0,0,0-1.09.387c0,5.956-2.177,9.835-5.889,12.63l-.946.667-.125.081A31.526,31.526,0,0,1,.556,16.626.705.705,0,0,0,.678,18.02,20.606,20.606,0,0,1,7.459,21.05a21.22,21.22,0,0,1,2.454,2.1,12.882,12.882,0,0,1,1.577,1.786,4.393,4.393,0,0,1,.429.851.6.6,0,0,0,.985.119,19.607,19.607,0,0,0,4.311-7.259h0v-.015a.143.143,0,0,1,.015-.044.134.134,0,0,0,0-.02l.364-1.254a19.631,19.631,0,0,0,.448-2.41v-.019a.161.161,0,0,0,0-.021.035.035,0,0,0,0-.011l.107-1.248C18.184,13.241,18.195,12.874,18.195,12.5Z" transform="translate(-0.002 -0.022)"/></g></g></g></svg>