<svg xmlns="http://www.w3.org/2000/svg" width="17.533" height="25.106" viewBox="0 0 17.533 25.106"><defs><style>.a{fill:#fff;fill-rule:evenodd;}</style></defs><path class="a" d="M15.967,5.079a.228.228,0,0,0,.091-.284,18.76,18.76,0,0,0-2.7-4.563.593.593,0,0,0-1.05.375c0,5.77-2.124,9.542-5.734,12.209a.081.081,0,0,0-.025.056,31.877,31.877,0,0,0,1.42,7.306.062.062,0,0,0,.122-.025A16.438,16.438,0,0,1,15.967,5.079Zm1.141,4.056h0A14.2,14.2,0,0,0,8.995,20.984H8.838a15.763,15.763,0,0,1,7.3-15.251.233.233,0,0,1,.34.122A18.694,18.694,0,0,1,17.244,8.9a.233.233,0,0,1-.132.243Zm-11.3,4.2h0a.066.066,0,0,1,.1.051,32.647,32.647,0,0,0,1.344,6.789.061.061,0,0,1-.1.071,20.676,20.676,0,0,0-6.525-2.92A.674.674,0,0,1,.518,15.99a40.882,40.882,0,0,0,5.293-2.652Zm11.241.71h0a.233.233,0,0,1,.3.243,18.958,18.958,0,0,1-.436,2.358.238.238,0,0,1-.177.167,8.72,8.72,0,0,0-1.151.335,8.5,8.5,0,0,0-5.07,5.207l-.243-.041a10.566,10.566,0,0,1,6.769-8.264ZM16.286,17.6h0a.233.233,0,0,1,.279.294A18.861,18.861,0,0,1,12.4,24.934a.588.588,0,0,1-.948-.117,11.731,11.731,0,0,0-.664-1.044h0a7.884,7.884,0,0,1,5.025-6.018C15.967,17.7,16.124,17.643,16.286,17.6ZM17.391,10.1h0a18.81,18.81,0,0,1,.1,1.932c0,.355,0,.71-.03,1.06a.233.233,0,0,1-.162.208c-.157.051-.319.1-.477.162a11.22,11.22,0,0,0-7.1,8.178H9.593A13.522,13.522,0,0,1,17.062,9.911a.228.228,0,0,1,.33.177Z" transform="translate(0.04 -0.018)"/></svg>