<svg xmlns="http://www.w3.org/2000/svg" xmlns:xlink="http://www.w3.org/1999/xlink" width="190" height="59" viewBox="0 0 190 59"><defs><style>.a{fill:none;}.b{clip-path:url(#a);}.c{fill:gray;}</style><clipPath id="a"><rect class="a" width="190" height="59"/></clipPath></defs><g transform="translate(12652 3486)"><g class="b" transform="translate(-12652 -3486)"><g transform="translate(-1172 -1191)"><circle class="c" cx="1" cy="1" r="1" transform="translate(1172 1191)"/></g><g transform="translate(-1166 -1191)"><circle class="c" cx="1" cy="1" r="1" transform="translate(1172 1191)"/></g><g transform="translate(-1160 -1191)"><circle class="c" cx="1" cy="1" r="1" transform="translate(1172 1191)"/></g><g transform="translate(-1154 -1191)"><circle class="c" cx="1" cy="1" r="1" transform="translate(1172 1191)"/></g><g transform="translate(-1148 -1191)"><circle class="c" cx="1" cy="1" r="1" transform="translate(1172 1191)"/></g><g transform="translate(-1142 -1191)"><circle class="c" cx="1" cy="1" r="1" transform="translate(1172 1191)"/></g><g transform="translate(-1136 -1191)"><circle class="c" cx="1" cy="1" r="1" transform="translate(1172 1191)"/></g><g transform="translate(-1130 -1191)"><circle class="c" cx="1" cy="1" r="1" transform="translate(1172 1191)"/></g><g transform="translate(-1124 -1191)"><circle class="c" cx="1" cy="1" r="1" transform="translate(1172 1191)"/></g><g transform="translate(-1118 -1191)"><circle class="c" cx="1" cy="1" r="1" transform="translate(1172 1191)"/></g><g transform="translate(-1112 -1191)"><circle class="c" cx="1" cy="1" r="1" transform="translate(1172 1191)"/></g><g transform="translate(-1106 -1191)"><circle class="c" cx="1" cy="1" r="1" transform="translate(1172 1191)"/></g><g transform="translate(-1100 -1191)"><circle class="c" cx="1" cy="1" r="1" transform="translate(1172 1191)"/></g><g transform="translate(-1094 -1191)"><circle class="c" cx="1" cy="1" r="1" transform="translate(1172 1191)"/></g><g transform="translate(-1088 -1191)"><circle class="c" cx="1" cy="1" r="1" transform="translate(1172 1191)"/></g><g transform="translate(-1082 -1191)"><circle class="c" cx="1" cy="1" r="1" transform="translate(1172 1191)"/></g><g transform="translate(-1076 -1191)"><circle class="c" cx="1" cy="1" r="1" transform="translate(1172 1191)"/></g><g transform="translate(-1070 -1191)"><circle class="c" cx="1" cy="1" r="1" transform="translate(1172 1191)"/></g><g transform="translate(-1064 -1191)"><circle class="c" cx="1" cy="1" r="1" transform="translate(1172 1191)"/></g><g transform="translate(-1058 -1191)"><circle class="c" cx="1" cy="1" r="1" transform="translate(1172 1191)"/></g><g transform="translate(-1052 -1191)"><circle class="c" cx="1" cy="1" r="1" transform="translate(1172 1191)"/></g><g transform="translate(-1046 -1191)"><circle class="c" cx="1" cy="1" r="1" transform="translate(1172 1191)"/></g><g transform="translate(-1040 -1191)"><circle class="c" cx="1" cy="1" r="1" transform="translate(1172 1191)"/></g><g transform="translate(-1034 -1191)"><circle class="c" cx="1" cy="1" r="1" transform="translate(1172 1191)"/></g><g transform="translate(-1028 -1191)"><circle class="c" cx="1" cy="1" r="1" transform="translate(1172 1191)"/></g><g transform="translate(-1022 -1191)"><circle class="c" cx="1" cy="1" r="1" transform="translate(1172 1191)"/></g><g transform="translate(-1016 -1191)"><circle class="c" cx="1" cy="1" r="1" transform="translate(1172 1191)"/></g><g transform="translate(-1010 -1191)"><circle class="c" cx="1" cy="1" r="1" transform="translate(1172 1191)"/></g><g transform="translate(-1004 -1191)"><circle class="c" cx="1" cy="1" r="1" transform="translate(1172 1191)"/></g><g transform="translate(-998 -1191)"><circle class="c" cx="1" cy="1" r="1" transform="translate(1172 1191)"/></g><g transform="translate(-992 -1191)"><circle class="c" cx="1" cy="1" r="1" transform="translate(1172 1191)"/></g><g transform="translate(-986 -1191)"><circle class="c" cx="1" cy="1" r="1" transform="translate(1172 1191)"/></g><g transform="translate(-1172 -1186)"><circle class="c" cx="1" cy="1" r="1" transform="translate(1172 1191)"/></g><g transform="translate(-1166 -1186)"><circle class="c" cx="1" cy="1" r="1" transform="translate(1172 1191)"/></g><g transform="translate(-1160 -1186)"><circle class="c" cx="1" cy="1" r="1" transform="translate(1172 1191)"/></g><g transform="translate(-1154 -1186)"><circle class="c" cx="1" cy="1" r="1" transform="translate(1172 1191)"/></g><g transform="translate(-1148 -1186)"><circle class="c" cx="1" cy="1" r="1" transform="translate(1172 1191)"/></g><g transform="translate(-1142 -1186)"><circle class="c" cx="1" cy="1" r="1" transform="translate(1172 1191)"/></g><g transform="translate(-1136 -1186)"><circle class="c" cx="1" cy="1" r="1" transform="translate(1172 1191)"/></g><g transform="translate(-1130 -1186)"><circle class="c" cx="1" cy="1" r="1" transform="translate(1172 1191)"/></g><g transform="translate(-1124 -1186)"><circle class="c" cx="1" cy="1" r="1" transform="translate(1172 1191)"/></g><g transform="translate(-1118 -1186)"><circle class="c" cx="1" cy="1" r="1" transform="translate(1172 1191)"/></g><g transform="translate(-1112 -1186)"><circle class="c" cx="1" cy="1" r="1" transform="translate(1172 1191)"/></g><g transform="translate(-1106 -1186)"><circle class="c" cx="1" cy="1" r="1" transform="translate(1172 1191)"/></g><g transform="translate(-1100 -1186)"><circle class="c" cx="1" cy="1" r="1" transform="translate(1172 1191)"/></g><g transform="translate(-1094 -1186)"><circle class="c" cx="1" cy="1" r="1" transform="translate(1172 1191)"/></g><g transform="translate(-1088 -1186)"><circle class="c" cx="1" cy="1" r="1" transform="translate(1172 1191)"/></g><g transform="translate(-1082 -1186)"><circle class="c" cx="1" cy="1" r="1" transform="translate(1172 1191)"/></g><g transform="translate(-1076 -1186)"><circle class="c" cx="1" cy="1" r="1" transform="translate(1172 1191)"/></g><g transform="translate(-1070 -1186)"><circle class="c" cx="1" cy="1" r="1" transform="translate(1172 1191)"/></g><g transform="translate(-1064 -1186)"><circle class="c" cx="1" cy="1" r="1" transform="translate(1172 1191)"/></g><g transform="translate(-1058 -1186)"><circle class="c" cx="1" cy="1" r="1" transform="translate(1172 1191)"/></g><g transform="translate(-1052 -1186)"><circle class="c" cx="1" cy="1" r="1" transform="translate(1172 1191)"/></g><g transform="translate(-1046 -1186)"><circle class="c" cx="1" cy="1" r="1" transform="translate(1172 1191)"/></g><g transform="translate(-1040 -1186)"><circle class="c" cx="1" cy="1" r="1" transform="translate(1172 1191)"/></g><g transform="translate(-1034 -1186)"><circle class="c" cx="1" cy="1" r="1" transform="translate(1172 1191)"/></g><g transform="translate(-1028 -1186)"><circle class="c" cx="1" cy="1" r="1" transform="translate(1172 1191)"/></g><g transform="translate(-1022 -1186)"><circle class="c" cx="1" cy="1" r="1" transform="translate(1172 1191)"/></g><g transform="translate(-1016 -1186)"><circle class="c" cx="1" cy="1" r="1" transform="translate(1172 1191)"/></g><g transform="translate(-1010 -1186)"><circle class="c" cx="1" cy="1" r="1" transform="translate(1172 1191)"/></g><g transform="translate(-1004 -1186)"><circle class="c" cx="1" cy="1" r="1" transform="translate(1172 1191)"/></g><g transform="translate(-998 -1186)"><circle class="c" cx="1" cy="1" r="1" transform="translate(1172 1191)"/></g><g transform="translate(-992 -1186)"><circle class="c" cx="1" cy="1" r="1" transform="translate(1172 1191)"/></g><g transform="translate(-986 -1186)"><circle class="c" cx="1" cy="1" r="1" transform="translate(1172 1191)"/></g><g transform="translate(-1172 -1181)"><circle class="c" cx="1" cy="1" r="1" transform="translate(1172 1191)"/></g><g transform="translate(-1166 -1181)"><circle class="c" cx="1" cy="1" r="1" transform="translate(1172 1191)"/></g><g transform="translate(-1160 -1181)"><circle class="c" cx="1" cy="1" r="1" transform="translate(1172 1191)"/></g><g transform="translate(-1154 -1181)"><circle class="c" cx="1" cy="1" r="1" transform="translate(1172 1191)"/></g><g transform="translate(-1148 -1181)"><circle class="c" cx="1" cy="1" r="1" transform="translate(1172 1191)"/></g><g transform="translate(-1142 -1181)"><circle class="c" cx="1" cy="1" r="1" transform="translate(1172 1191)"/></g><g transform="translate(-1136 -1181)"><circle class="c" cx="1" cy="1" r="1" transform="translate(1172 1191)"/></g><g transform="translate(-1130 -1181)"><circle class="c" cx="1" cy="1" r="1" transform="translate(1172 1191)"/></g><g transform="translate(-1124 -1181)"><circle class="c" cx="1" cy="1" r="1" transform="translate(1172 1191)"/></g><g transform="translate(-1118 -1181)"><circle class="c" cx="1" cy="1" r="1" transform="translate(1172 1191)"/></g><g transform="translate(-1112 -1181)"><circle class="c" cx="1" cy="1" r="1" transform="translate(1172 1191)"/></g><g transform="translate(-1106 -1181)"><circle class="c" cx="1" cy="1" r="1" transform="translate(1172 1191)"/></g><g transform="translate(-1100 -1181)"><circle class="c" cx="1" cy="1" r="1" transform="translate(1172 1191)"/></g><g transform="translate(-1094 -1181)"><circle class="c" cx="1" cy="1" r="1" transform="translate(1172 1191)"/></g><g transform="translate(-1088 -1181)"><circle class="c" cx="1" cy="1" r="1" transform="translate(1172 1191)"/></g><g transform="translate(-1082 -1181)"><circle class="c" cx="1" cy="1" r="1" transform="translate(1172 1191)"/></g><g transform="translate(-1076 -1181)"><circle class="c" cx="1" cy="1" r="1" transform="translate(1172 1191)"/></g><g transform="translate(-1070 -1181)"><circle class="c" cx="1" cy="1" r="1" transform="translate(1172 1191)"/></g><g transform="translate(-1064 -1181)"><circle class="c" cx="1" cy="1" r="1" transform="translate(1172 1191)"/></g><g transform="translate(-1058 -1181)"><circle class="c" cx="1" cy="1" r="1" transform="translate(1172 1191)"/></g><g transform="translate(-1052 -1181)"><circle class="c" cx="1" cy="1" r="1" transform="translate(1172 1191)"/></g><g transform="translate(-1046 -1181)"><circle class="c" cx="1" cy="1" r="1" transform="translate(1172 1191)"/></g><g transform="translate(-1040 -1181)"><circle class="c" cx="1" cy="1" r="1" transform="translate(1172 1191)"/></g><g transform="translate(-1034 -1181)"><circle class="c" cx="1" cy="1" r="1" transform="translate(1172 1191)"/></g><g transform="translate(-1028 -1181)"><circle class="c" cx="1" cy="1" r="1" transform="translate(1172 1191)"/></g><g transform="translate(-1022 -1181)"><circle class="c" cx="1" cy="1" r="1" transform="translate(1172 1191)"/></g><g transform="translate(-1016 -1181)"><circle class="c" cx="1" cy="1" r="1" transform="translate(1172 1191)"/></g><g transform="translate(-1010 -1181)"><circle class="c" cx="1" cy="1" r="1" transform="translate(1172 1191)"/></g><g transform="translate(-1004 -1181)"><circle class="c" cx="1" cy="1" r="1" transform="translate(1172 1191)"/></g><g transform="translate(-998 -1181)"><circle class="c" cx="1" cy="1" r="1" transform="translate(1172 1191)"/></g><g transform="translate(-992 -1181)"><circle class="c" cx="1" cy="1" r="1" transform="translate(1172 1191)"/></g><g transform="translate(-986 -1181)"><circle class="c" cx="1" cy="1" r="1" transform="translate(1172 1191)"/></g><g transform="translate(-1172 -1176)"><circle class="c" cx="1" cy="1" r="1" transform="translate(1172 1191)"/></g><g transform="translate(-1166 -1176)"><circle class="c" cx="1" cy="1" r="1" transform="translate(1172 1191)"/></g><g transform="translate(-1160 -1176)"><circle class="c" cx="1" cy="1" r="1" transform="translate(1172 1191)"/></g><g transform="translate(-1154 -1176)"><circle class="c" cx="1" cy="1" r="1" transform="translate(1172 1191)"/></g><g transform="translate(-1148 -1176)"><circle class="c" cx="1" cy="1" r="1" transform="translate(1172 1191)"/></g><g transform="translate(-1142 -1176)"><circle class="c" cx="1" cy="1" r="1" transform="translate(1172 1191)"/></g><g transform="translate(-1136 -1176)"><circle class="c" cx="1" cy="1" r="1" transform="translate(1172 1191)"/></g><g transform="translate(-1130 -1176)"><circle class="c" cx="1" cy="1" r="1" transform="translate(1172 1191)"/></g><g transform="translate(-1124 -1176)"><circle class="c" cx="1" cy="1" r="1" transform="translate(1172 1191)"/></g><g transform="translate(-1118 -1176)"><circle class="c" cx="1" cy="1" r="1" transform="translate(1172 1191)"/></g><g transform="translate(-1112 -1176)"><circle class="c" cx="1" cy="1" r="1" transform="translate(1172 1191)"/></g><g transform="translate(-1106 -1176)"><circle class="c" cx="1" cy="1" r="1" transform="translate(1172 1191)"/></g><g transform="translate(-1100 -1176)"><circle class="c" cx="1" cy="1" r="1" transform="translate(1172 1191)"/></g><g transform="translate(-1094 -1176)"><circle class="c" cx="1" cy="1" r="1" transform="translate(1172 1191)"/></g><g transform="translate(-1088 -1176)"><circle class="c" cx="1" cy="1" r="1" transform="translate(1172 1191)"/></g><g transform="translate(-1082 -1176)"><circle class="c" cx="1" cy="1" r="1" transform="translate(1172 1191)"/></g><g transform="translate(-1076 -1176)"><circle class="c" cx="1" cy="1" r="1" transform="translate(1172 1191)"/></g><g transform="translate(-1070 -1176)"><circle class="c" cx="1" cy="1" r="1" transform="translate(1172 1191)"/></g><g transform="translate(-1064 -1176)"><circle class="c" cx="1" cy="1" r="1" transform="translate(1172 1191)"/></g><g transform="translate(-1058 -1176)"><circle class="c" cx="1" cy="1" r="1" transform="translate(1172 1191)"/></g><g transform="translate(-1052 -1176)"><circle class="c" cx="1" cy="1" r="1" transform="translate(1172 1191)"/></g><g transform="translate(-1046 -1176)"><circle class="c" cx="1" cy="1" r="1" transform="translate(1172 1191)"/></g><g transform="translate(-1040 -1176)"><circle class="c" cx="1" cy="1" r="1" transform="translate(1172 1191)"/></g><g transform="translate(-1034 -1176)"><circle class="c" cx="1" cy="1" r="1" transform="translate(1172 1191)"/></g><g transform="translate(-1028 -1176)"><circle class="c" cx="1" cy="1" r="1" transform="translate(1172 1191)"/></g><g transform="translate(-1022 -1176)"><circle class="c" cx="1" cy="1" r="1" transform="translate(1172 1191)"/></g><g transform="translate(-1016 -1176)"><circle class="c" cx="1" cy="1" r="1" transform="translate(1172 1191)"/></g><g transform="translate(-1010 -1176)"><circle class="c" cx="1" cy="1" r="1" transform="translate(1172 1191)"/></g><g transform="translate(-1004 -1176)"><circle class="c" cx="1" cy="1" r="1" transform="translate(1172 1191)"/></g><g transform="translate(-998 -1176)"><circle class="c" cx="1" cy="1" r="1" transform="translate(1172 1191)"/></g><g transform="translate(-992 -1176)"><circle class="c" cx="1" cy="1" r="1" transform="translate(1172 1191)"/></g><g transform="translate(-986 -1176)"><circle class="c" cx="1" cy="1" r="1" transform="translate(1172 1191)"/></g><g transform="translate(-1172 -1171)"><circle class="c" cx="1" cy="1" r="1" transform="translate(1172 1191)"/></g><g transform="translate(-1166 -1171)"><circle class="c" cx="1" cy="1" r="1" transform="translate(1172 1191)"/></g><g transform="translate(-1160 -1171)"><circle class="c" cx="1" cy="1" r="1" transform="translate(1172 1191)"/></g><g transform="translate(-1154 -1171)"><circle class="c" cx="1" cy="1" r="1" transform="translate(1172 1191)"/></g><g transform="translate(-1148 -1171)"><circle class="c" cx="1" cy="1" r="1" transform="translate(1172 1191)"/></g><g transform="translate(-1142 -1171)"><circle class="c" cx="1" cy="1" r="1" transform="translate(1172 1191)"/></g><g transform="translate(-1136 -1171)"><circle class="c" cx="1" cy="1" r="1" transform="translate(1172 1191)"/></g><g transform="translate(-1130 -1171)"><circle class="c" cx="1" cy="1" r="1" transform="translate(1172 1191)"/></g><g transform="translate(-1124 -1171)"><circle class="c" cx="1" cy="1" r="1" transform="translate(1172 1191)"/></g><g transform="translate(-1118 -1171)"><circle class="c" cx="1" cy="1" r="1" transform="translate(1172 1191)"/></g><g transform="translate(-1112 -1171)"><circle class="c" cx="1" cy="1" r="1" transform="translate(1172 1191)"/></g><g transform="translate(-1106 -1171)"><circle class="c" cx="1" cy="1" r="1" transform="translate(1172 1191)"/></g><g transform="translate(-1100 -1171)"><circle class="c" cx="1" cy="1" r="1" transform="translate(1172 1191)"/></g><g transform="translate(-1094 -1171)"><circle class="c" cx="1" cy="1" r="1" transform="translate(1172 1191)"/></g><g transform="translate(-1088 -1171)"><circle class="c" cx="1" cy="1" r="1" transform="translate(1172 1191)"/></g><g transform="translate(-1082 -1171)"><circle class="c" cx="1" cy="1" r="1" transform="translate(1172 1191)"/></g><g transform="translate(-1076 -1171)"><circle class="c" cx="1" cy="1" r="1" transform="translate(1172 1191)"/></g><g transform="translate(-1070 -1171)"><circle class="c" cx="1" cy="1" r="1" transform="translate(1172 1191)"/></g><g transform="translate(-1064 -1171)"><circle class="c" cx="1" cy="1" r="1" transform="translate(1172 1191)"/></g><g transform="translate(-1058 -1171)"><circle class="c" cx="1" cy="1" r="1" transform="translate(1172 1191)"/></g><g transform="translate(-1052 -1171)"><circle class="c" cx="1" cy="1" r="1" transform="translate(1172 1191)"/></g><g transform="translate(-1046 -1171)"><circle class="c" cx="1" cy="1" r="1" transform="translate(1172 1191)"/></g><g transform="translate(-1040 -1171)"><circle class="c" cx="1" cy="1" r="1" transform="translate(1172 1191)"/></g><g transform="translate(-1034 -1171)"><circle class="c" cx="1" cy="1" r="1" transform="translate(1172 1191)"/></g><g transform="translate(-1028 -1171)"><circle class="c" cx="1" cy="1" r="1" transform="translate(1172 1191)"/></g><g transform="translate(-1022 -1171)"><circle class="c" cx="1" cy="1" r="1" transform="translate(1172 1191)"/></g><g transform="translate(-1016 -1171)"><circle class="c" cx="1" cy="1" r="1" transform="translate(1172 1191)"/></g><g transform="translate(-1010 -1171)"><circle class="c" cx="1" cy="1" r="1" transform="translate(1172 1191)"/></g><g transform="translate(-1004 -1171)"><circle class="c" cx="1" cy="1" r="1" transform="translate(1172 1191)"/></g><g transform="translate(-998 -1171)"><circle class="c" cx="1" cy="1" r="1" transform="translate(1172 1191)"/></g><g transform="translate(-992 -1171)"><circle class="c" cx="1" cy="1" r="1" transform="translate(1172 1191)"/></g><g transform="translate(-986 -1171)"><circle class="c" cx="1" cy="1" r="1" transform="translate(1172 1191)"/></g><g transform="translate(-1172 -1166)"><circle class="c" cx="1" cy="1" r="1" transform="translate(1172 1191)"/></g><g transform="translate(-1166 -1166)"><circle class="c" cx="1" cy="1" r="1" transform="translate(1172 1191)"/></g><g transform="translate(-1160 -1166)"><circle class="c" cx="1" cy="1" r="1" transform="translate(1172 1191)"/></g><g transform="translate(-1154 -1166)"><circle class="c" cx="1" cy="1" r="1" transform="translate(1172 1191)"/></g><g transform="translate(-1148 -1166)"><circle class="c" cx="1" cy="1" r="1" transform="translate(1172 1191)"/></g><g transform="translate(-1142 -1166)"><circle class="c" cx="1" cy="1" r="1" transform="translate(1172 1191)"/></g><g transform="translate(-1136 -1166)"><circle class="c" cx="1" cy="1" r="1" transform="translate(1172 1191)"/></g><g transform="translate(-1130 -1166)"><circle class="c" cx="1" cy="1" r="1" transform="translate(1172 1191)"/></g><g transform="translate(-1124 -1166)"><circle class="c" cx="1" cy="1" r="1" transform="translate(1172 1191)"/></g><g transform="translate(-1118 -1166)"><circle class="c" cx="1" cy="1" r="1" transform="translate(1172 1191)"/></g><g transform="translate(-1112 -1166)"><circle class="c" cx="1" cy="1" r="1" transform="translate(1172 1191)"/></g><g transform="translate(-1106 -1166)"><circle class="c" cx="1" cy="1" r="1" transform="translate(1172 1191)"/></g><g transform="translate(-1100 -1166)"><circle class="c" cx="1" cy="1" r="1" transform="translate(1172 1191)"/></g><g transform="translate(-1094 -1166)"><circle class="c" cx="1" cy="1" r="1" transform="translate(1172 1191)"/></g><g transform="translate(-1088 -1166)"><circle class="c" cx="1" cy="1" r="1" transform="translate(1172 1191)"/></g><g transform="translate(-1082 -1166)"><circle class="c" cx="1" cy="1" r="1" transform="translate(1172 1191)"/></g><g transform="translate(-1076 -1166)"><circle class="c" cx="1" cy="1" r="1" transform="translate(1172 1191)"/></g><g transform="translate(-1070 -1166)"><circle class="c" cx="1" cy="1" r="1" transform="translate(1172 1191)"/></g><g transform="translate(-1064 -1166)"><circle class="c" cx="1" cy="1" r="1" transform="translate(1172 1191)"/></g><g transform="translate(-1058 -1166)"><circle class="c" cx="1" cy="1" r="1" transform="translate(1172 1191)"/></g><g transform="translate(-1052 -1166)"><circle class="c" cx="1" cy="1" r="1" transform="translate(1172 1191)"/></g><g transform="translate(-1046 -1166)"><circle class="c" cx="1" cy="1" r="1" transform="translate(1172 1191)"/></g><g transform="translate(-1040 -1166)"><circle class="c" cx="1" cy="1" r="1" transform="translate(1172 1191)"/></g><g transform="translate(-1034 -1166)"><circle class="c" cx="1" cy="1" r="1" transform="translate(1172 1191)"/></g><g transform="translate(-1028 -1166)"><circle class="c" cx="1" cy="1" r="1" transform="translate(1172 1191)"/></g><g transform="translate(-1022 -1166)"><circle class="c" cx="1" cy="1" r="1" transform="translate(1172 1191)"/></g><g transform="translate(-1016 -1166)"><circle class="c" cx="1" cy="1" r="1" transform="translate(1172 1191)"/></g><g transform="translate(-1010 -1166)"><circle class="c" cx="1" cy="1" r="1" transform="translate(1172 1191)"/></g><g transform="translate(-1004 -1166)"><circle class="c" cx="1" cy="1" r="1" transform="translate(1172 1191)"/></g><g transform="translate(-998 -1166)"><circle class="c" cx="1" cy="1" r="1" transform="translate(1172 1191)"/></g><g transform="translate(-992 -1166)"><circle class="c" cx="1" cy="1" r="1" transform="translate(1172 1191)"/></g><g transform="translate(-986 -1166)"><circle class="c" cx="1" cy="1" r="1" transform="translate(1172 1191)"/></g><g transform="translate(-1172 -1161)"><circle class="c" cx="1" cy="1" r="1" transform="translate(1172 1191)"/></g><g transform="translate(-1166 -1161)"><circle class="c" cx="1" cy="1" r="1" transform="translate(1172 1191)"/></g><g transform="translate(-1160 -1161)"><circle class="c" cx="1" cy="1" r="1" transform="translate(1172 1191)"/></g><g transform="translate(-1154 -1161)"><circle class="c" cx="1" cy="1" r="1" transform="translate(1172 1191)"/></g><g transform="translate(-1148 -1161)"><circle class="c" cx="1" cy="1" r="1" transform="translate(1172 1191)"/></g><g transform="translate(-1142 -1161)"><circle class="c" cx="1" cy="1" r="1" transform="translate(1172 1191)"/></g><g transform="translate(-1136 -1161)"><circle class="c" cx="1" cy="1" r="1" transform="translate(1172 1191)"/></g><g transform="translate(-1130 -1161)"><circle class="c" cx="1" cy="1" r="1" transform="translate(1172 1191)"/></g><g transform="translate(-1124 -1161)"><circle class="c" cx="1" cy="1" r="1" transform="translate(1172 1191)"/></g><g transform="translate(-1118 -1161)"><circle class="c" cx="1" cy="1" r="1" transform="translate(1172 1191)"/></g><g transform="translate(-1112 -1161)"><circle class="c" cx="1" cy="1" r="1" transform="translate(1172 1191)"/></g><g transform="translate(-1106 -1161)"><circle class="c" cx="1" cy="1" r="1" transform="translate(1172 1191)"/></g><g transform="translate(-1100 -1161)"><circle class="c" cx="1" cy="1" r="1" transform="translate(1172 1191)"/></g><g transform="translate(-1094 -1161)"><circle class="c" cx="1" cy="1" r="1" transform="translate(1172 1191)"/></g><g transform="translate(-1088 -1161)"><circle class="c" cx="1" cy="1" r="1" transform="translate(1172 1191)"/></g><g transform="translate(-1082 -1161)"><circle class="c" cx="1" cy="1" r="1" transform="translate(1172 1191)"/></g><g transform="translate(-1076 -1161)"><circle class="c" cx="1" cy="1" r="1" transform="translate(1172 1191)"/></g><g transform="translate(-1070 -1161)"><circle class="c" cx="1" cy="1" r="1" transform="translate(1172 1191)"/></g><g transform="translate(-1064 -1161)"><circle class="c" cx="1" cy="1" r="1" transform="translate(1172 1191)"/></g><g transform="translate(-1058 -1161)"><circle class="c" cx="1" cy="1" r="1" transform="translate(1172 1191)"/></g><g transform="translate(-1052 -1161)"><circle class="c" cx="1" cy="1" r="1" transform="translate(1172 1191)"/></g><g transform="translate(-1046 -1161)"><circle class="c" cx="1" cy="1" r="1" transform="translate(1172 1191)"/></g><g transform="translate(-1040 -1161)"><circle class="c" cx="1" cy="1" r="1" transform="translate(1172 1191)"/></g><g transform="translate(-1034 -1161)"><circle class="c" cx="1" cy="1" r="1" transform="translate(1172 1191)"/></g><g transform="translate(-1028 -1161)"><circle class="c" cx="1" cy="1" r="1" transform="translate(1172 1191)"/></g><g transform="translate(-1022 -1161)"><circle class="c" cx="1" cy="1" r="1" transform="translate(1172 1191)"/></g><g transform="translate(-1016 -1161)"><circle class="c" cx="1" cy="1" r="1" transform="translate(1172 1191)"/></g><g transform="translate(-1010 -1161)"><circle class="c" cx="1" cy="1" r="1" transform="translate(1172 1191)"/></g><g transform="translate(-1004 -1161)"><circle class="c" cx="1" cy="1" r="1" transform="translate(1172 1191)"/></g><g transform="translate(-998 -1161)"><circle class="c" cx="1" cy="1" r="1" transform="translate(1172 1191)"/></g><g transform="translate(-992 -1161)"><circle class="c" cx="1" cy="1" r="1" transform="translate(1172 1191)"/></g><g transform="translate(-986 -1161)"><circle class="c" cx="1" cy="1" r="1" transform="translate(1172 1191)"/></g><g transform="translate(-1172 -1156)"><circle class="c" cx="1" cy="1" r="1" transform="translate(1172 1191)"/></g><g transform="translate(-1166 -1156)"><circle class="c" cx="1" cy="1" r="1" transform="translate(1172 1191)"/></g><g transform="translate(-1160 -1156)"><circle class="c" cx="1" cy="1" r="1" transform="translate(1172 1191)"/></g><g transform="translate(-1154 -1156)"><circle class="c" cx="1" cy="1" r="1" transform="translate(1172 1191)"/></g><g transform="translate(-1148 -1156)"><circle class="c" cx="1" cy="1" r="1" transform="translate(1172 1191)"/></g><g transform="translate(-1142 -1156)"><circle class="c" cx="1" cy="1" r="1" transform="translate(1172 1191)"/></g><g transform="translate(-1136 -1156)"><circle class="c" cx="1" cy="1" r="1" transform="translate(1172 1191)"/></g><g transform="translate(-1130 -1156)"><circle class="c" cx="1" cy="1" r="1" transform="translate(1172 1191)"/></g><g transform="translate(-1124 -1156)"><circle class="c" cx="1" cy="1" r="1" transform="translate(1172 1191)"/></g><g transform="translate(-1118 -1156)"><circle class="c" cx="1" cy="1" r="1" transform="translate(1172 1191)"/></g><g transform="translate(-1112 -1156)"><circle class="c" cx="1" cy="1" r="1" transform="translate(1172 1191)"/></g><g transform="translate(-1106 -1156)"><circle class="c" cx="1" cy="1" r="1" transform="translate(1172 1191)"/></g><g transform="translate(-1100 -1156)"><circle class="c" cx="1" cy="1" r="1" transform="translate(1172 1191)"/></g><g transform="translate(-1094 -1156)"><circle class="c" cx="1" cy="1" r="1" transform="translate(1172 1191)"/></g><g transform="translate(-1088 -1156)"><circle class="c" cx="1" cy="1" r="1" transform="translate(1172 1191)"/></g><g transform="translate(-1082 -1156)"><circle class="c" cx="1" cy="1" r="1" transform="translate(1172 1191)"/></g><g transform="translate(-1076 -1156)"><circle class="c" cx="1" cy="1" r="1" transform="translate(1172 1191)"/></g><g transform="translate(-1070 -1156)"><circle class="c" cx="1" cy="1" r="1" transform="translate(1172 1191)"/></g><g transform="translate(-1064 -1156)"><circle class="c" cx="1" cy="1" r="1" transform="translate(1172 1191)"/></g><g transform="translate(-1058 -1156)"><circle class="c" cx="1" cy="1" r="1" transform="translate(1172 1191)"/></g><g transform="translate(-1052 -1156)"><circle class="c" cx="1" cy="1" r="1" transform="translate(1172 1191)"/></g><g transform="translate(-1046 -1156)"><circle class="c" cx="1" cy="1" r="1" transform="translate(1172 1191)"/></g><g transform="translate(-1040 -1156)"><circle class="c" cx="1" cy="1" r="1" transform="translate(1172 1191)"/></g><g transform="translate(-1034 -1156)"><circle class="c" cx="1" cy="1" r="1" transform="translate(1172 1191)"/></g><g transform="translate(-1028 -1156)"><circle class="c" cx="1" cy="1" r="1" transform="translate(1172 1191)"/></g><g transform="translate(-1022 -1156)"><circle class="c" cx="1" cy="1" r="1" transform="translate(1172 1191)"/></g><g transform="translate(-1016 -1156)"><circle class="c" cx="1" cy="1" r="1" transform="translate(1172 1191)"/></g><g transform="translate(-1010 -1156)"><circle class="c" cx="1" cy="1" r="1" transform="translate(1172 1191)"/></g><g transform="translate(-1004 -1156)"><circle class="c" cx="1" cy="1" r="1" transform="translate(1172 1191)"/></g><g transform="translate(-998 -1156)"><circle class="c" cx="1" cy="1" r="1" transform="translate(1172 1191)"/></g><g transform="translate(-992 -1156)"><circle class="c" cx="1" cy="1" r="1" transform="translate(1172 1191)"/></g><g transform="translate(-986 -1156)"><circle class="c" cx="1" cy="1" r="1" transform="translate(1172 1191)"/></g><g transform="translate(-1172 -1151)"><circle class="c" cx="1" cy="1" r="1" transform="translate(1172 1191)"/></g><g transform="translate(-1166 -1151)"><circle class="c" cx="1" cy="1" r="1" transform="translate(1172 1191)"/></g><g transform="translate(-1160 -1151)"><circle class="c" cx="1" cy="1" r="1" transform="translate(1172 1191)"/></g><g transform="translate(-1154 -1151)"><circle class="c" cx="1" cy="1" r="1" transform="translate(1172 1191)"/></g><g transform="translate(-1148 -1151)"><circle class="c" cx="1" cy="1" r="1" transform="translate(1172 1191)"/></g><g transform="translate(-1142 -1151)"><circle class="c" cx="1" cy="1" r="1" transform="translate(1172 1191)"/></g><g transform="translate(-1136 -1151)"><circle class="c" cx="1" cy="1" r="1" transform="translate(1172 1191)"/></g><g transform="translate(-1130 -1151)"><circle class="c" cx="1" cy="1" r="1" transform="translate(1172 1191)"/></g><g transform="translate(-1124 -1151)"><circle class="c" cx="1" cy="1" r="1" transform="translate(1172 1191)"/></g><g transform="translate(-1118 -1151)"><circle class="c" cx="1" cy="1" r="1" transform="translate(1172 1191)"/></g><g transform="translate(-1112 -1151)"><circle class="c" cx="1" cy="1" r="1" transform="translate(1172 1191)"/></g><g transform="translate(-1106 -1151)"><circle class="c" cx="1" cy="1" r="1" transform="translate(1172 1191)"/></g><g transform="translate(-1100 -1151)"><circle class="c" cx="1" cy="1" r="1" transform="translate(1172 1191)"/></g><g transform="translate(-1094 -1151)"><circle class="c" cx="1" cy="1" r="1" transform="translate(1172 1191)"/></g><g transform="translate(-1088 -1151)"><circle class="c" cx="1" cy="1" r="1" transform="translate(1172 1191)"/></g><g transform="translate(-1082 -1151)"><circle class="c" cx="1" cy="1" r="1" transform="translate(1172 1191)"/></g><g transform="translate(-1076 -1151)"><circle class="c" cx="1" cy="1" r="1" transform="translate(1172 1191)"/></g><g transform="translate(-1070 -1151)"><circle class="c" cx="1" cy="1" r="1" transform="translate(1172 1191)"/></g><g transform="translate(-1064 -1151)"><circle class="c" cx="1" cy="1" r="1" transform="translate(1172 1191)"/></g><g transform="translate(-1058 -1151)"><circle class="c" cx="1" cy="1" r="1" transform="translate(1172 1191)"/></g><g transform="translate(-1052 -1151)"><circle class="c" cx="1" cy="1" r="1" transform="translate(1172 1191)"/></g><g transform="translate(-1046 -1151)"><circle class="c" cx="1" cy="1" r="1" transform="translate(1172 1191)"/></g><g transform="translate(-1040 -1151)"><circle class="c" cx="1" cy="1" r="1" transform="translate(1172 1191)"/></g><g transform="translate(-1034 -1151)"><circle class="c" cx="1" cy="1" r="1" transform="translate(1172 1191)"/></g><g transform="translate(-1028 -1151)"><circle class="c" cx="1" cy="1" r="1" transform="translate(1172 1191)"/></g><g transform="translate(-1022 -1151)"><circle class="c" cx="1" cy="1" r="1" transform="translate(1172 1191)"/></g><g transform="translate(-1016 -1151)"><circle class="c" cx="1" cy="1" r="1" transform="translate(1172 1191)"/></g><g transform="translate(-1010 -1151)"><circle class="c" cx="1" cy="1" r="1" transform="translate(1172 1191)"/></g><g transform="translate(-1004 -1151)"><circle class="c" cx="1" cy="1" r="1" transform="translate(1172 1191)"/></g><g transform="translate(-998 -1151)"><circle class="c" cx="1" cy="1" r="1" transform="translate(1172 1191)"/></g><g transform="translate(-992 -1151)"><circle class="c" cx="1" cy="1" r="1" transform="translate(1172 1191)"/></g><g transform="translate(-986 -1151)"><circle class="c" cx="1" cy="1" r="1" transform="translate(1172 1191)"/></g><g transform="translate(-1172 -1146)"><circle class="c" cx="1" cy="1" r="1" transform="translate(1172 1191)"/></g><g transform="translate(-1166 -1146)"><circle class="c" cx="1" cy="1" r="1" transform="translate(1172 1191)"/></g><g transform="translate(-1160 -1146)"><circle class="c" cx="1" cy="1" r="1" transform="translate(1172 1191)"/></g><g transform="translate(-1154 -1146)"><circle class="c" cx="1" cy="1" r="1" transform="translate(1172 1191)"/></g><g transform="translate(-1148 -1146)"><circle class="c" cx="1" cy="1" r="1" transform="translate(1172 1191)"/></g><g transform="translate(-1142 -1146)"><circle class="c" cx="1" cy="1" r="1" transform="translate(1172 1191)"/></g><g transform="translate(-1136 -1146)"><circle class="c" cx="1" cy="1" r="1" transform="translate(1172 1191)"/></g><g transform="translate(-1130 -1146)"><circle class="c" cx="1" cy="1" r="1" transform="translate(1172 1191)"/></g><g transform="translate(-1124 -1146)"><circle class="c" cx="1" cy="1" r="1" transform="translate(1172 1191)"/></g><g transform="translate(-1118 -1146)"><circle class="c" cx="1" cy="1" r="1" transform="translate(1172 1191)"/></g><g transform="translate(-1112 -1146)"><circle class="c" cx="1" cy="1" r="1" transform="translate(1172 1191)"/></g><g transform="translate(-1106 -1146)"><circle class="c" cx="1" cy="1" r="1" transform="translate(1172 1191)"/></g><g transform="translate(-1100 -1146)"><circle class="c" cx="1" cy="1" r="1" transform="translate(1172 1191)"/></g><g transform="translate(-1094 -1146)"><circle class="c" cx="1" cy="1" r="1" transform="translate(1172 1191)"/></g><g transform="translate(-1088 -1146)"><circle class="c" cx="1" cy="1" r="1" transform="translate(1172 1191)"/></g><g transform="translate(-1082 -1146)"><circle class="c" cx="1" cy="1" r="1" transform="translate(1172 1191)"/></g><g transform="translate(-1076 -1146)"><circle class="c" cx="1" cy="1" r="1" transform="translate(1172 1191)"/></g><g transform="translate(-1070 -1146)"><circle class="c" cx="1" cy="1" r="1" transform="translate(1172 1191)"/></g><g transform="translate(-1064 -1146)"><circle class="c" cx="1" cy="1" r="1" transform="translate(1172 1191)"/></g><g transform="translate(-1058 -1146)"><circle class="c" cx="1" cy="1" r="1" transform="translate(1172 1191)"/></g><g transform="translate(-1052 -1146)"><circle class="c" cx="1" cy="1" r="1" transform="translate(1172 1191)"/></g><g transform="translate(-1046 -1146)"><circle class="c" cx="1" cy="1" r="1" transform="translate(1172 1191)"/></g><g transform="translate(-1040 -1146)"><circle class="c" cx="1" cy="1" r="1" transform="translate(1172 1191)"/></g><g transform="translate(-1034 -1146)"><circle class="c" cx="1" cy="1" r="1" transform="translate(1172 1191)"/></g><g transform="translate(-1028 -1146)"><circle class="c" cx="1" cy="1" r="1" transform="translate(1172 1191)"/></g><g transform="translate(-1022 -1146)"><circle class="c" cx="1" cy="1" r="1" transform="translate(1172 1191)"/></g><g transform="translate(-1016 -1146)"><circle class="c" cx="1" cy="1" r="1" transform="translate(1172 1191)"/></g><g transform="translate(-1010 -1146)"><circle class="c" cx="1" cy="1" r="1" transform="translate(1172 1191)"/></g><g transform="translate(-1004 -1146)"><circle class="c" cx="1" cy="1" r="1" transform="translate(1172 1191)"/></g><g transform="translate(-998 -1146)"><circle class="c" cx="1" cy="1" r="1" transform="translate(1172 1191)"/></g><g transform="translate(-992 -1146)"><circle class="c" cx="1" cy="1" r="1" transform="translate(1172 1191)"/></g><g transform="translate(-986 -1146)"><circle class="c" cx="1" cy="1" r="1" transform="translate(1172 1191)"/></g><g transform="translate(-1172 -1141)"><circle class="c" cx="1" cy="1" r="1" transform="translate(1172 1191)"/></g><g transform="translate(-1166 -1141)"><circle class="c" cx="1" cy="1" r="1" transform="translate(1172 1191)"/></g><g transform="translate(-1160 -1141)"><circle class="c" cx="1" cy="1" r="1" transform="translate(1172 1191)"/></g><g transform="translate(-1154 -1141)"><circle class="c" cx="1" cy="1" r="1" transform="translate(1172 1191)"/></g><g transform="translate(-1148 -1141)"><circle class="c" cx="1" cy="1" r="1" transform="translate(1172 1191)"/></g><g transform="translate(-1142 -1141)"><circle class="c" cx="1" cy="1" r="1" transform="translate(1172 1191)"/></g><g transform="translate(-1136 -1141)"><circle class="c" cx="1" cy="1" r="1" transform="translate(1172 1191)"/></g><g transform="translate(-1130 -1141)"><circle class="c" cx="1" cy="1" r="1" transform="translate(1172 1191)"/></g><g transform="translate(-1124 -1141)"><circle class="c" cx="1" cy="1" r="1" transform="translate(1172 1191)"/></g><g transform="translate(-1118 -1141)"><circle class="c" cx="1" cy="1" r="1" transform="translate(1172 1191)"/></g><g transform="translate(-1112 -1141)"><circle class="c" cx="1" cy="1" r="1" transform="translate(1172 1191)"/></g><g transform="translate(-1106 -1141)"><circle class="c" cx="1" cy="1" r="1" transform="translate(1172 1191)"/></g><g transform="translate(-1100 -1141)"><circle class="c" cx="1" cy="1" r="1" transform="translate(1172 1191)"/></g><g transform="translate(-1094 -1141)"><circle class="c" cx="1" cy="1" r="1" transform="translate(1172 1191)"/></g><g transform="translate(-1088 -1141)"><circle class="c" cx="1" cy="1" r="1" transform="translate(1172 1191)"/></g><g transform="translate(-1082 -1141)"><circle class="c" cx="1" cy="1" r="1" transform="translate(1172 1191)"/></g><g transform="translate(-1076 -1141)"><circle class="c" cx="1" cy="1" r="1" transform="translate(1172 1191)"/></g><g transform="translate(-1070 -1141)"><circle class="c" cx="1" cy="1" r="1" transform="translate(1172 1191)"/></g><g transform="translate(-1064 -1141)"><circle class="c" cx="1" cy="1" r="1" transform="translate(1172 1191)"/></g><g transform="translate(-1058 -1141)"><circle class="c" cx="1" cy="1" r="1" transform="translate(1172 1191)"/></g><g transform="translate(-1052 -1141)"><circle class="c" cx="1" cy="1" r="1" transform="translate(1172 1191)"/></g><g transform="translate(-1046 -1141)"><circle class="c" cx="1" cy="1" r="1" transform="translate(1172 1191)"/></g><g transform="translate(-1040 -1141)"><circle class="c" cx="1" cy="1" r="1" transform="translate(1172 1191)"/></g><g transform="translate(-1034 -1141)"><circle class="c" cx="1" cy="1" r="1" transform="translate(1172 1191)"/></g><g transform="translate(-1028 -1141)"><circle class="c" cx="1" cy="1" r="1" transform="translate(1172 1191)"/></g><g transform="translate(-1022 -1141)"><circle class="c" cx="1" cy="1" r="1" transform="translate(1172 1191)"/></g><g transform="translate(-1016 -1141)"><circle class="c" cx="1" cy="1" r="1" transform="translate(1172 1191)"/></g><g transform="translate(-1010 -1141)"><circle class="c" cx="1" cy="1" r="1" transform="translate(1172 1191)"/></g><g transform="translate(-1004 -1141)"><circle class="c" cx="1" cy="1" r="1" transform="translate(1172 1191)"/></g><g transform="translate(-998 -1141)"><circle class="c" cx="1" cy="1" r="1" transform="translate(1172 1191)"/></g><g transform="translate(-992 -1141)"><circle class="c" cx="1" cy="1" r="1" transform="translate(1172 1191)"/></g><g transform="translate(-986 -1141)"><circle class="c" cx="1" cy="1" r="1" transform="translate(1172 1191)"/></g><g transform="translate(-1172 -1136)"><circle class="c" cx="1" cy="1" r="1" transform="translate(1172 1191)"/></g><g transform="translate(-1166 -1136)"><circle class="c" cx="1" cy="1" r="1" transform="translate(1172 1191)"/></g><g transform="translate(-1160 -1136)"><circle class="c" cx="1" cy="1" r="1" transform="translate(1172 1191)"/></g><g transform="translate(-1154 -1136)"><circle class="c" cx="1" cy="1" r="1" transform="translate(1172 1191)"/></g><g transform="translate(-1148 -1136)"><circle class="c" cx="1" cy="1" r="1" transform="translate(1172 1191)"/></g><g transform="translate(-1142 -1136)"><circle class="c" cx="1" cy="1" r="1" transform="translate(1172 1191)"/></g><g transform="translate(-1136 -1136)"><circle class="c" cx="1" cy="1" r="1" transform="translate(1172 1191)"/></g><g transform="translate(-1130 -1136)"><circle class="c" cx="1" cy="1" r="1" transform="translate(1172 1191)"/></g><g transform="translate(-1124 -1136)"><circle class="c" cx="1" cy="1" r="1" transform="translate(1172 1191)"/></g><g transform="translate(-1118 -1136)"><circle class="c" cx="1" cy="1" r="1" transform="translate(1172 1191)"/></g><g transform="translate(-1112 -1136)"><circle class="c" cx="1" cy="1" r="1" transform="translate(1172 1191)"/></g><g transform="translate(-1106 -1136)"><circle class="c" cx="1" cy="1" r="1" transform="translate(1172 1191)"/></g><g transform="translate(-1100 -1136)"><circle class="c" cx="1" cy="1" r="1" transform="translate(1172 1191)"/></g><g transform="translate(-1094 -1136)"><circle class="c" cx="1" cy="1" r="1" transform="translate(1172 1191)"/></g><g transform="translate(-1088 -1136)"><circle class="c" cx="1" cy="1" r="1" transform="translate(1172 1191)"/></g><g transform="translate(-1082 -1136)"><circle class="c" cx="1" cy="1" r="1" transform="translate(1172 1191)"/></g><g transform="translate(-1076 -1136)"><circle class="c" cx="1" cy="1" r="1" transform="translate(1172 1191)"/></g><g transform="translate(-1070 -1136)"><circle class="c" cx="1" cy="1" r="1" transform="translate(1172 1191)"/></g><g transform="translate(-1064 -1136)"><circle class="c" cx="1" cy="1" r="1" transform="translate(1172 1191)"/></g><g transform="translate(-1058 -1136)"><circle class="c" cx="1" cy="1" r="1" transform="translate(1172 1191)"/></g><g transform="translate(-1052 -1136)"><circle class="c" cx="1" cy="1" r="1" transform="translate(1172 1191)"/></g><g transform="translate(-1046 -1136)"><circle class="c" cx="1" cy="1" r="1" transform="translate(1172 1191)"/></g><g transform="translate(-1040 -1136)"><circle class="c" cx="1" cy="1" r="1" transform="translate(1172 1191)"/></g><g transform="translate(-1034 -1136)"><circle class="c" cx="1" cy="1" r="1" transform="translate(1172 1191)"/></g><g transform="translate(-1028 -1136)"><circle class="c" cx="1" cy="1" r="1" transform="translate(1172 1191)"/></g><g transform="translate(-1022 -1136)"><circle class="c" cx="1" cy="1" r="1" transform="translate(1172 1191)"/></g><g transform="translate(-1016 -1136)"><circle class="c" cx="1" cy="1" r="1" transform="translate(1172 1191)"/></g><g transform="translate(-1010 -1136)"><circle class="c" cx="1" cy="1" r="1" transform="translate(1172 1191)"/></g><g transform="translate(-1004 -1136)"><circle class="c" cx="1" cy="1" r="1" transform="translate(1172 1191)"/></g><g transform="translate(-998 -1136)"><circle class="c" cx="1" cy="1" r="1" transform="translate(1172 1191)"/></g><g transform="translate(-992 -1136)"><circle class="c" cx="1" cy="1" r="1" transform="translate(1172 1191)"/></g><g transform="translate(-986 -1136)"><circle class="c" cx="1" cy="1" r="1" transform="translate(1172 1191)"/></g></g></g></svg>