<svg width="32" height="32" viewBox="0 0 32 32" fill="none" xmlns="http://www.w3.org/2000/svg">
<path d="M16.0001 29.3334C23.3639 29.3334 29.3334 23.3639 29.3334 16.0001C29.3334 8.63629 23.3639 2.66675 16.0001 2.66675C8.63628 2.66675 2.66675 8.63629 2.66675 16.0001C2.66675 23.3639 8.63628 29.3334 16.0001 29.3334Z" stroke="#F56E28" stroke-width="2" stroke-linecap="round" stroke-linejoin="round"/>
<path d="M12.12 12C12.4335 11.1089 13.0522 10.3575 13.8666 9.87887C14.681 9.40024 15.6385 9.22528 16.5696 9.38498C17.5006 9.54467 18.3451 10.0287 18.9534 10.7514C19.5618 11.4741 19.8947 12.3887 19.8933 13.3334C19.8933 16 15.8933 17.3334 15.8933 17.3334" stroke="#F56E28" stroke-width="2" stroke-linecap="round" stroke-linejoin="round"/>
<path d="M16 22.6667H16.0133" stroke="#F56E28" stroke-width="2" stroke-linecap="round" stroke-linejoin="round"/>
</svg>
