<svg width="32" height="32" viewBox="0 0 32 32" fill="none" xmlns="http://www.w3.org/2000/svg">
<path fill-rule="evenodd" clip-rule="evenodd" d="M15.9642 6.40065C20.4657 6.37808 24.8085 8.06138 28.1189 11.1118C28.2941 11.2804 28.4335 11.4826 28.5287 11.7064C28.6239 11.9302 28.673 12.1708 28.673 12.414C28.673 12.6572 28.6239 12.8979 28.5287 13.1216C28.4335 13.3454 28.2941 13.5476 28.1189 13.7163V13.7163C27.7809 14.0483 27.326 14.2343 26.8521 14.2343C26.3783 14.2343 25.9234 14.0483 25.5854 13.7163C22.9694 11.2554 19.5131 9.88525 15.9215 9.88525C12.3299 9.88525 8.8736 11.2554 6.25755 13.7163C5.90838 14.0466 5.4423 14.2246 4.96185 14.2113C4.4814 14.1979 4.02593 13.9942 3.69564 13.6451C3.36535 13.2959 3.1873 12.8298 3.20065 12.3494C3.214 11.8689 3.41767 11.4134 3.76684 11.0832C7.09247 8.03299 11.4522 6.35936 15.9646 6.40065H15.9642Z" fill="#F56E28"/>
<path fill-rule="evenodd" clip-rule="evenodd" d="M15.9641 12.8905C18.7339 12.8587 21.4132 13.8756 23.4645 15.7371C23.6397 15.9057 23.779 16.108 23.8742 16.3317C23.9694 16.5555 24.0184 16.7961 24.0184 17.0393C24.0184 17.2825 23.9694 17.5231 23.8742 17.7469C23.779 17.9706 23.6397 18.1729 23.4645 18.3416V18.3416C23.121 18.6797 22.6584 18.8693 22.1764 18.8693C21.6944 18.8693 21.2317 18.6797 20.8883 18.3416C19.558 17.0372 17.7692 16.3066 15.9061 16.3066C14.0431 16.3066 12.2543 17.0372 10.924 18.3416C10.5806 18.6796 10.118 18.8691 9.63609 18.8691C9.15418 18.8691 8.69159 18.6796 8.34815 18.3416V18.3416C8.17294 18.1729 8.03355 17.9707 7.93834 17.7469C7.84314 17.5232 7.79407 17.2825 7.79407 17.0393C7.79407 16.7961 7.84314 16.5555 7.93834 16.3317C8.03355 16.1079 8.17294 15.9057 8.34815 15.7371C10.4283 13.8484 13.1537 12.8296 15.9627 12.8905H15.9641Z" fill="#F56E28"/>
<path fill-rule="evenodd" clip-rule="evenodd" d="M15.965 26.3973C16.7131 26.3945 17.4436 26.17 18.0642 25.7523C18.6849 25.3346 19.1679 24.7424 19.4522 24.0504C19.7365 23.3585 19.8094 22.5977 19.6617 21.8644C19.5141 21.131 19.1524 20.4578 18.6224 19.9298C18.0925 19.4017 17.4179 19.0426 16.684 18.8977C15.95 18.7527 15.1896 18.8285 14.4987 19.1154C13.8078 19.4023 13.2174 19.8875 12.802 20.5097C12.3866 21.1318 12.1649 21.8632 12.1648 22.6113C12.1648 23.1096 12.2632 23.6031 12.4543 24.0634C12.6455 24.5236 12.9257 24.9416 13.2787 25.2933C13.6318 25.645 14.0508 25.9236 14.5118 26.113C14.9728 26.3024 15.4666 26.3989 15.965 26.397V26.3973Z" fill="#F56E28"/>
</svg>
