<svg xmlns="http://www.w3.org/2000/svg" width="24.61" height="14.099" viewBox="0 0 24.61 14.099"><defs><style>.a{fill:#781e7d;fill-rule:evenodd;}</style></defs><path class="a" d="M210.649,7.72h10.681a1.9,1.9,0,0,1,1.7,1.089l2.646,5.27a.849.849,0,0,0,1.513,0l2.646-5.27a1.905,1.905,0,0,1,2.668-.784,1.949,1.949,0,0,1,.708,2.559l-5.117,10.2a1.851,1.851,0,0,1-3.321,0l-4.693-9.342h0a1.851,1.851,0,0,0-1.851,1.84v6.468a2.047,2.047,0,0,1-4.094,0V13.219a1.84,1.84,0,0,0-1.851-1.818H210.66a1.84,1.84,0,1,1,0-3.68Z" transform="translate(-208.82 -7.72)"/></svg>