<svg width="32" height="32" viewBox="0 0 32 32" fill="none" xmlns="http://www.w3.org/2000/svg">
<path d="M29.3333 15.6567C29.3333 22.8309 23.4728 28.6466 16.2423 28.6466C13.9469 28.6466 11.7905 28.0599 9.91433 27.0303L2.66663 29.3334L5.02959 22.3639C3.83759 20.4066 3.15107 18.1109 3.15107 15.6567C3.15107 8.48245 9.01211 2.66675 16.2423 2.66675C23.4734 2.66675 29.3333 8.48245 29.3333 15.6567ZM16.2423 4.73549C10.173 4.73549 5.23611 9.63475 5.23611 15.6567C5.23611 18.0463 6.01507 20.2593 7.3327 22.0596L5.95759 26.1156L10.1872 24.7713C11.925 25.9124 14.0068 26.5779 16.2426 26.5779C22.3111 26.5779 27.2488 21.6792 27.2488 15.6573C27.2488 9.63534 22.3114 4.73549 16.2423 4.73549ZM22.853 18.6484C22.7721 18.5159 22.5585 18.4359 22.2379 18.2768C21.9167 18.1177 20.3386 17.347 20.0453 17.2413C19.7511 17.1352 19.5366 17.0819 19.3229 17.4004C19.1093 17.7192 18.4942 18.4359 18.3066 18.6484C18.1194 18.8614 17.9324 18.8881 17.6112 18.7287C17.2906 18.5696 16.2568 18.233 15.0311 17.1485C14.0773 16.3047 13.4331 15.2629 13.2459 14.9438C13.0589 14.6253 13.2263 14.4531 13.3866 14.2946C13.5312 14.1518 13.7078 13.9227 13.8681 13.737C14.029 13.5509 14.0823 13.4185 14.1887 13.2057C14.2963 12.9933 14.2426 12.8075 14.162 12.6478C14.082 12.4887 13.4397 10.9219 13.1724 10.2842C12.9051 9.64719 12.6382 9.75327 12.4506 9.75327C12.2637 9.75327 12.0494 9.7266 11.8355 9.7266C11.6216 9.7266 11.2737 9.8063 10.9795 10.1248C10.6856 10.4436 9.85685 11.214 9.85685 12.7805C9.85685 14.3473 11.0062 15.8611 11.1671 16.0733C11.3274 16.2854 13.3863 19.6051 16.6486 20.8801C19.9111 22.1545 19.9111 21.7293 20.4995 21.6759C21.0874 21.6229 22.3976 20.9059 22.666 20.1627C22.9327 19.4185 22.9327 18.7811 22.853 18.6484Z" fill="#F56E28"/>
</svg>
